<?xml version="1.0" standalone="no"?>
<!DOCTYPE svg PUBLIC "-//W3C//DTD SVG 20010904//EN"
 "http://www.w3.org/TR/2001/REC-SVG-20010904/DTD/svg10.dtd">
<svg version="1.0" xmlns="http://www.w3.org/2000/svg"
 width="277pt" height="531pt" viewBox="0 0 277 531"
 preserveAspectRatio="xMidYMid meet">
<metadata>
Created by potrace 1.8, written by Peter Selinger 2001-2007
</metadata>
<g transform="translate(0,531) scale(0.120000,-0.120000)"
fill="#000000" stroke="none">
<path d="M305 4422 c-7 0 -13 -1 -14 -1 0 -1 -4 -1 -7 -1 -15 -1 -23 -3 -40
-9 -7 -2 -24 -9 -31 -13 -9 -5 -29 -19 -38 -26 -7 -5 -18 -18 -22 -25 -1 -2
-4 -8 -7 -12 -6 -12 -9 -17 -9 -20 0 -1 -1 -3 -1 -4 -1 -2 -3 -7 -5 -12 -1 -5
-3 -10 -4 -12 0 -2 -1 -6 -1 -9 0 -3 0 -10 -1 -14 -1 -5 -2 -14 -3 -20 -1 -7
-2 -16 -2 -22 -1 -7 -2 -46 -2 -104 0 -51 -1 -95 -1 -97 -1 -2 -1 -4 0 -6 2
-3 2 -13 2 -78 0 -40 0 -104 0 -140 1 -37 1 -122 1 -188 1 -67 1 -160 1 -206
1 -46 1 -125 1 -174 1 -100 2 -217 2 -373 1 -58 1 -131 2 -163 0 -45 0 -59 -1
-61 -1 -2 -1 -4 0 -5 1 -2 1 -23 1 -65 1 -34 1 -84 2 -110 0 -26 0 -118 0
-204 1 -87 1 -187 2 -223 1 -103 1 -139 0 -142 -1 -2 -1 -4 0 -6 1 -1 1 -31 1
-95 2 -180 2 -252 2 -278 1 -15 1 -69 1 -120 1 -52 1 -110 2 -128 0 -18 0 -56
0 -84 0 -52 1 -77 4 -89 3 -11 16 -30 29 -43 12 -13 31 -31 39 -36 3 -3 6 -6
6 -6 0 -1 3 -3 6 -5 13 -10 21 -18 23 -24 4 -7 6 -21 6 -36 0 -19 -1 -22 -12
-41 -5 -8 -9 -17 -10 -18 0 -1 -1 -4 -2 -5 -1 -2 -2 -6 -3 -8 -1 -3 -2 -9 -4
-14 -7 -22 -7 -18 -6 -113 1 -31 1 -82 1 -114 1 -32 1 -73 2 -91 0 -18 0 -58
0 -89 0 -37 1 -58 1 -60 1 -1 1 -8 1 -14 0 -9 0 -12 2 -15 0 -2 2 -6 3 -8 4
-16 15 -30 32 -45 8 -6 24 -15 32 -17 10 -2 12 -3 18 -5 5 -2 8 -2 22 -3 20 0
21 0 32 1 16 2 26 5 39 13 1 0 6 3 11 5 7 4 9 5 19 17 7 7 13 15 15 18 5 9 8
15 8 17 0 2 1 6 1 9 5 22 6 24 6 64 0 20 -1 63 -1 94 -1 31 -1 89 -1 129 -1
39 -1 89 -2 110 0 38 -2 79 -4 84 -1 3 -3 15 -5 27 -1 8 -10 26 -20 43 -5 7
-5 11 -7 36 0 11 0 14 2 20 1 3 2 8 2 9 1 3 6 8 10 10 2 1 3 3 4 4 0 0 2 2 4
3 2 1 5 4 7 7 2 2 5 5 8 7 2 2 7 6 11 10 3 4 11 11 16 16 11 9 19 18 27 31 3
4 6 8 7 9 1 1 4 8 6 17 2 5 5 27 4 31 -1 17 -1 51 -1 160 -1 174 -2 294 -4
473 0 29 0 59 0 67 0 21 0 24 0 41 0 9 0 17 0 18 0 3 5 6 12 7 2 0 73 0 156 1
83 1 153 2 154 2 1 1 2 2 2 3 0 5 -1 6 -19 6 -21 0 -166 -2 -240 -3 -31 0 -58
0 -60 0 -4 1 -4 2 -5 5 -1 3 -1 32 -2 87 0 46 0 88 0 95 -1 6 -1 54 -1 107 -1
52 -1 111 -1 131 -1 20 -1 70 -1 112 -1 42 -1 103 -2 136 0 118 -1 214 -1 325
-1 61 -1 181 -2 267 0 86 -1 215 -1 287 -1 125 -1 202 -2 395 -1 120 -1 167
-1 168 1 0 2 -1 4 -2 l2 -2 111 1 c173 1 156 0 158 2 1 3 1 5 -1 8 -1 1 -8 1
-94 1 -187 -2 -178 -2 -178 4 0 1 0 3 -1 4 0 2 -1 43 -1 100 -1 97 -2 124 -5
141 0 4 -1 9 -1 11 0 5 -3 17 -7 29 -4 13 -11 25 -20 38 -4 5 -7 11 -8 12 -4
6 -29 29 -36 34 -17 11 -30 19 -36 22 -12 5 -27 9 -42 12 -19 3 -29 4 -46 3z
m23 -16 c22 -2 50 -10 65 -17 6 -3 12 -5 13 -6 1 0 4 -1 6 -2 1 -1 3 -2 4 -2
1 0 20 -14 23 -18 2 -1 5 -5 9 -8 5 -5 10 -13 19 -26 8 -11 17 -32 17 -37 0
-2 1 -9 3 -15 2 -7 3 -17 4 -23 1 -6 2 -13 2 -16 1 -4 1 -19 2 -34 0 -35 2
-382 2 -485 0 -42 0 -86 0 -97 1 -11 1 -86 1 -167 2 -376 2 -453 3 -604 1 -28
1 -108 1 -178 1 -71 1 -154 1 -186 1 -96 2 -199 3 -311 0 -59 0 -113 1 -120 0
-12 0 -137 0 -148 0 -2 0 -29 1 -60 0 -31 1 -81 1 -112 0 -31 0 -68 0 -81 1
-14 1 -66 1 -116 1 -51 1 -99 1 -107 1 -9 0 -35 0 -57 -1 -31 -1 -42 0 -46 1
-4 2 -64 2 -182 0 -45 0 -51 -1 -57 -3 -11 -8 -21 -14 -28 -3 -4 -7 -8 -8 -10
-2 -3 -17 -17 -30 -29 -5 -4 -13 -11 -17 -15 -5 -5 -12 -10 -16 -13 -7 -5 -14
-12 -17 -19 -2 -4 -2 -8 -3 -21 -1 -10 -1 -21 -1 -25 1 -13 7 -31 15 -43 8
-12 17 -44 20 -69 0 -4 0 -23 1 -42 0 -19 0 -57 1 -85 0 -28 1 -76 2 -107 0
-31 1 -79 1 -105 1 -63 1 -103 -1 -111 -1 -7 -7 -22 -11 -29 -4 -6 -9 -12 -17
-22 -3 -3 -6 -6 -6 -7 0 0 -1 -1 -2 -2 -2 0 -5 -3 -7 -5 -9 -7 -19 -12 -34
-16 -9 -2 -11 -2 -32 -2 -27 0 -32 1 -55 11 -9 4 -21 13 -38 30 -5 4 -14 25
-16 37 -1 4 -1 30 -1 77 -1 39 -1 86 -1 104 -2 110 -3 272 -2 278 0 2 2 10 3
16 1 6 3 14 5 17 1 4 3 8 3 10 2 6 13 26 17 30 3 4 7 13 9 22 2 8 1 36 -1 46
-1 4 -3 10 -5 13 -3 7 -15 18 -26 27 -5 3 -13 10 -17 15 -5 5 -12 10 -14 12
-3 2 -7 5 -9 7 -3 3 -7 7 -10 9 -2 3 -8 8 -12 12 -7 10 -12 20 -17 39 l-3 11
0 62 c0 35 0 63 0 64 0 1 13 1 70 0 38 0 70 0 70 -1 0 0 1 -10 2 -94 0 -33 0
-79 1 -101 1 -119 1 -133 0 -138 -5 -12 -9 -23 -13 -30 -2 -5 -6 -16 -9 -25
-3 -8 -6 -18 -7 -20 -3 -7 -4 -28 -4 -47 1 -9 1 -68 2 -131 0 -63 0 -115 1
-116 0 -1 0 -32 1 -70 0 -54 0 -70 2 -75 0 -3 1 -8 1 -9 0 -6 5 -22 9 -27 5
-8 22 -21 31 -23 2 -1 8 -3 12 -4 6 -3 9 -3 18 -3 6 0 12 0 13 1 16 5 24 7 28
10 2 2 7 5 11 7 9 5 16 13 19 20 4 9 7 19 7 23 0 3 1 8 2 13 1 7 1 16 0 102
-1 53 -1 105 -2 118 0 12 0 50 -1 85 -1 86 -2 99 -6 127 -2 15 -3 19 -6 26 -7
14 -25 51 -25 53 -1 1 -1 55 -2 120 0 64 0 123 0 130 -1 7 -1 49 -1 93 -1 99
-2 145 -2 201 -1 24 -1 104 -2 179 -1 207 -2 269 -3 306 0 51 -1 167 -3 460 0
55 0 121 -1 148 0 26 0 100 0 164 -1 77 -1 118 -2 120 -1 1 -1 3 0 6 1 3 1 41
0 297 -1 38 -1 121 -2 183 0 62 0 136 -1 164 0 28 0 140 0 250 -1 160 -2 378
-2 478 -1 19 -3 47 -5 52 0 2 -2 7 -3 12 -2 8 -3 9 -8 14 -3 3 -8 7 -12 9 -6
4 -7 4 -11 4 -8 -1 -17 -3 -20 -5 -5 -2 -17 -15 -18 -18 0 -1 -1 -4 -2 -5 -2
-3 -4 -15 -5 -29 -1 -7 -1 -57 -1 -112 0 -84 0 -100 -1 -101 -1 -1 -19 -1 -66
-1 -36 0 -66 0 -67 1 -1 0 -3 1 -3 1 -1 1 -1 52 -1 103 0 66 1 106 4 118 1 4
2 9 2 12 0 2 1 8 3 13 2 7 3 9 2 13 0 5 0 6 2 6 2 1 4 5 4 12 1 13 14 33 34
53 16 16 24 22 46 32 22 11 28 14 34 14 1 0 7 1 12 2 4 1 13 3 18 3 6 0 10 1
11 1 1 1 16 1 27 0z m-13 -125 c7 -2 16 -10 20 -18 5 -10 5 -17 6 -61 0 -23 0
-59 1 -79 0 -21 0 -115 1 -209 0 -94 0 -206 0 -250 1 -80 1 -177 2 -419 1
-168 2 -294 3 -400 0 -118 1 -197 1 -305 1 -52 1 -112 2 -134 0 -36 0 -40 -1
-41 -3 -2 -60 -1 -61 1 -2 2 -3 46 -4 225 0 52 0 128 -1 167 -1 240 -2 413 -4
639 0 55 0 127 0 159 -1 32 -1 119 -1 194 -1 75 -1 138 -1 141 -1 6 -1 150 -1
256 0 88 0 95 6 111 4 12 6 15 16 21 7 3 8 4 16 2z m-50 -268 c2 -1 2 -19 3
-101 l0 -100 -15 0 c-26 -1 -118 -2 -121 -1 -2 1 -2 1 -2 10 0 5 0 10 0 13 -2
9 -5 8 43 8 46 0 49 0 49 4 0 2 -1 3 -1 3 -1 1 -22 1 -46 1 -25 0 -44 0 -44 1
-2 1 -2 9 -1 12 1 2 2 3 4 4 4 1 4 3 0 4 -4 2 -5 3 -5 9 0 7 -3 6 46 6 44 0
45 0 47 2 1 1 2 2 1 3 0 2 -4 2 -46 2 -33 0 -46 0 -47 1 -1 1 -2 9 0 12 1 1 2
2 3 2 3 0 5 2 5 4 0 0 -2 1 -4 2 -5 0 -5 1 -5 8 0 5 0 6 2 7 2 1 41 1 75 -1
16 0 18 0 19 1 2 3 0 5 -4 6 -2 1 -23 1 -47 1 -34 0 -43 0 -44 1 -1 2 -1 32 0
34 1 1 8 1 47 1 34 -1 46 -1 48 0 3 2 2 5 -1 6 -2 1 -24 1 -48 1 -25 0 -45 0
-46 0 -2 1 -1 33 0 35 2 2 133 1 135 -1z m1 -209 c1 0 2 -1 2 -3 1 -1 1 -48 2
-103 0 -72 0 -100 -1 -100 -1 -1 -27 -1 -58 -1 -31 0 -62 0 -68 0 l-11 1 0 8
c0 11 0 10 0 19 l0 7 45 0 c39 0 46 0 47 1 1 1 1 3 1 3 -1 2 -6 2 -46 2 -24
-1 -45 0 -47 0 -1 1 -2 2 -2 8 -1 6 -1 7 1 9 1 2 1 2 0 5 -1 1 -1 5 -1 9 l1 6
10 0 c6 1 27 1 46 0 38 0 39 0 39 4 0 1 -1 2 -2 2 -1 1 -22 1 -46 1 -33 0 -45
0 -46 1 -2 1 -2 5 -2 20 l1 19 45 0 c46 1 48 1 48 5 0 3 -5 3 -30 3 -14 0 -34
0 -44 0 l-19 1 -1 16 c0 11 0 16 1 17 1 0 21 0 45 0 40 1 44 1 46 2 3 2 4 3 2
5 -1 0 -22 1 -47 1 -28 0 -45 0 -46 1 0 0 -1 7 -1 15 0 14 0 15 1 17 2 1 16 1
67 0 36 0 66 0 68 -1z m4 -215 c0 -1 1 -41 1 -134 0 -57 0 -69 -1 -70 -2 -1
-136 0 -137 1 -1 0 -1 4 -1 7 l1 7 7 0 c7 0 9 1 9 2 0 2 -4 4 -11 5 l-5 1 -1
5 c-1 5 -1 7 0 8 1 1 8 1 47 1 47 -1 49 -1 49 3 0 0 -1 1 -2 2 -1 0 -22 1 -47
1 -53 1 -49 0 -48 12 1 8 1 10 0 17 0 3 0 6 1 7 l1 2 45 0 c39 0 45 0 47 1 1
2 1 2 0 3 -2 2 -6 2 -38 2 -49 0 -54 0 -55 2 -1 1 -2 27 0 31 l0 3 13 0 c7 0
27 0 44 0 31 0 35 0 35 3 0 1 0 2 -1 3 -1 0 -21 0 -45 0 -25 1 -45 1 -46 1 -1
1 -1 33 0 33 1 1 23 1 56 1 19 0 31 0 32 1 3 2 3 5 0 5 -27 1 -55 1 -67 1 -9
0 -17 0 -18 1 -5 1 -6 6 -3 13 1 4 1 5 0 6 -1 1 -1 12 0 13 0 1 137 0 138 0z
m-61 -212 c33 0 60 0 61 -1 1 -1 2 -28 2 -131 0 -67 0 -76 -1 -77 -2 -1 -80
-1 -117 0 l-20 1 -1 4 c0 2 0 5 0 7 1 3 1 3 6 2 5 0 12 1 12 3 -1 1 -4 2 -9 2
l-8 1 -1 5 c0 3 -1 7 0 8 l0 2 45 0 c44 -1 48 -1 48 2 0 4 -2 4 -48 5 -24 0
-45 0 -45 1 -1 1 -1 34 0 36 1 1 12 1 46 1 40 0 45 0 47 1 2 3 1 5 -5 5 -3 1
-24 1 -46 1 -30 0 -41 0 -42 1 0 1 -1 4 -1 7 0 5 1 7 3 10 1 2 2 4 1 4 -3 1
-4 3 -4 8 0 10 -4 9 47 9 38 -1 44 -1 46 1 4 4 0 5 -29 5 -15 0 -35 1 -45 1
l-18 1 0 6 c0 4 0 8 0 10 0 1 0 6 0 10 l0 8 43 0 c24 0 45 0 46 0 4 1 4 4 1 5
-2 0 -22 1 -46 1 -24 0 -43 1 -44 2 -1 1 -2 14 0 15 1 1 1 2 0 4 -1 1 -1 5 -1
8 l1 6 6 0 c3 0 7 1 8 0 2 0 30 0 62 0z m63 -217 c1 -1 1 -8 1 -118 0 -47 0
-86 0 -87 -1 -1 -11 -1 -48 -1 -25 0 -56 1 -68 1 l-22 1 -1 6 c0 7 0 8 13 7
14 -2 19 0 14 4 -1 1 -5 2 -13 2 -6 0 -12 0 -13 0 -1 1 -1 3 -1 8 l1 7 45 0
c24 0 45 0 46 0 1 0 3 1 4 2 1 1 1 1 0 3 -2 1 -9 1 -49 1 -51 1 -48 0 -48 7 0
8 1 8 12 8 12 0 15 1 11 5 -2 2 -3 2 -11 2 -6 0 -9 0 -10 1 -2 1 -2 11 -1 12
1 2 7 2 46 2 48 0 50 0 48 4 0 2 -1 2 -4 2 -3 0 -24 0 -47 0 -34 1 -42 1 -43
2 -1 2 -1 32 0 34 1 1 10 1 46 2 36 0 46 0 47 1 2 2 2 4 1 5 -1 0 -22 1 -47 1
-25 0 -46 0 -47 0 -1 1 -1 7 -1 17 0 13 0 16 1 17 2 1 12 1 46 1 46 -1 48 0
45 4 -1 1 -5 2 -45 2 -32 0 -45 1 -46 2 -1 0 -1 3 -1 9 1 9 1 8 0 16 0 6 0 7
1 8 2 1 137 1 138 0z m-9 -213 c9 0 9 0 10 -2 1 -2 1 -45 1 -102 1 -79 1 -99
0 -100 -1 0 -32 -1 -69 -1 -59 0 -68 0 -69 1 -1 1 -1 4 -1 7 l1 6 5 0 c8 0 10
1 10 2 0 3 -2 3 -9 4 l-6 1 0 6 0 7 15 0 c15 1 40 2 65 2 12 0 14 1 15 2 1 1
1 2 0 3 -1 2 -1 2 -74 1 -10 0 -19 0 -20 1 -2 0 -2 1 -2 8 1 9 1 11 0 20 0 7
0 8 2 8 1 1 21 1 44 1 23 1 43 1 45 2 2 0 4 3 2 4 -1 1 -15 2 -47 2 -43 0 -45
0 -46 1 -1 2 -1 11 0 12 1 0 3 0 5 1 4 0 5 1 5 2 0 2 -2 3 -7 4 -3 1 -4 3 -4
9 0 6 -1 6 48 6 24 0 45 0 46 1 1 0 2 4 0 4 0 0 -2 0 -3 1 -1 0 -22 0 -45 0
-24 0 -44 1 -45 1 -1 1 -1 12 0 17 1 2 1 4 0 5 -1 2 -1 5 -1 7 l1 5 45 0 c25
0 47 0 48 0 3 1 2 4 -1 5 -2 1 -15 1 -28 1 -14 0 -30 0 -36 1 -7 0 -15 0 -20
0 l-8 1 -1 6 c0 6 0 7 2 8 3 3 3 4 0 6 -2 1 -2 2 -2 7 0 4 0 6 1 6 1 1 28 1
60 0 32 0 63 0 68 0z m10 -212 c2 -1 2 -12 2 -68 1 -97 2 -139 1 -140 -1 0
-31 0 -69 -1 -53 0 -68 0 -69 1 -2 1 -2 4 -2 18 l1 17 36 0 c61 0 55 0 58 2 2
2 2 2 1 3 -2 2 -9 2 -45 2 -24 0 -45 0 -47 1 -3 1 -3 1 -3 6 l0 6 7 0 c9 0 12
1 12 2 0 2 -5 4 -11 5 -4 0 -7 0 -8 0 -1 1 -1 14 0 15 1 0 21 0 45 0 43 0 48
0 48 3 0 1 -2 2 -4 3 -3 1 -6 1 -24 0 -29 -1 -63 -1 -65 0 -1 2 -2 16 0 16 0
0 3 0 6 0 10 1 10 5 0 6 -4 1 -7 1 -7 1 -1 1 -1 15 0 16 1 1 9 2 48 2 39 0 47
0 48 1 1 2 0 4 -3 5 -1 0 -23 0 -48 0 l-45 0 -1 3 c0 1 0 5 0 8 1 7 1 8 1 17
-1 4 -1 7 0 8 1 1 9 1 46 1 43 1 49 1 50 4 2 3 -3 3 -49 3 l-47 1 0 7 c0 8 0
10 0 19 l0 7 48 0 c83 1 88 1 89 0z m2 -217 c1 -1 2 -11 2 -72 1 -39 1 -83 1
-99 1 -26 1 -29 -1 -30 -1 -2 -8 -2 -69 -2 -38 1 -68 1 -69 1 0 1 -1 9 -1 19
l1 17 45 1 c25 0 46 0 47 0 3 2 2 4 0 4 -2 0 -3 0 -3 1 -1 1 -17 1 -45 1 -50
0 -46 -1 -45 10 0 7 0 8 -1 17 -1 10 -4 9 49 9 48 -1 50 0 49 4 0 1 -6 1 -48
2 -26 0 -48 0 -49 0 -1 1 -1 33 0 34 1 0 21 0 45 1 37 0 44 0 46 2 4 3 2 3
-12 4 -51 0 -78 1 -79 2 -1 0 -1 4 -1 8 1 9 1 9 0 16 0 6 0 7 1 8 1 1 22 1 46
1 27 0 46 0 47 1 3 1 4 5 2 5 -1 0 -22 0 -48 0 -26 0 -47 1 -47 1 -2 1 -1 13
0 14 1 1 4 1 8 1 7 0 9 1 9 4 0 3 -2 3 -10 3 l-7 1 -1 4 c-1 9 -8 8 69 8 40 0
68 0 69 -1z m3 -217 c1 -12 2 -200 1 -200 -1 -1 -137 0 -138 1 -2 1 -2 31 -1
33 1 2 2 2 15 2 8 -1 17 -1 21 -2 9 -1 53 -1 56 1 3 2 3 5 -1 6 -2 1 -19 1
-47 1 l-44 1 -1 6 c0 8 -1 7 10 9 6 0 9 2 7 4 -1 0 -5 1 -9 1 l-7 1 -1 6 c0 4
0 7 1 7 1 0 21 0 46 0 24 0 46 0 48 1 4 1 4 4 -1 5 -2 1 -24 1 -48 1 -25 0
-45 0 -45 1 -1 1 -2 15 -1 16 1 0 9 0 18 0 19 0 23 1 23 4 0 3 -4 3 -22 3 -12
0 -17 0 -18 1 -1 1 -2 8 -2 11 l1 3 25 0 c43 -1 69 -1 70 -1 1 1 1 5 0 5 -4 1
-11 1 -50 1 -42 0 -44 0 -45 2 -1 2 -1 10 0 12 0 0 7 1 17 1 14 1 18 1 19 3 1
1 1 1 0 3 -2 1 -4 1 -19 1 -12 0 -17 0 -17 1 -1 2 -1 9 0 11 1 2 3 2 46 2 27
0 46 0 47 1 3 1 4 3 2 4 0 1 -21 1 -45 1 -24 0 -45 1 -47 1 -3 1 -4 1 -4 6 0
9 0 9 12 9 6 0 10 1 13 1 7 4 2 6 -12 5 -12 0 -13 0 -13 8 0 3 0 6 1 6 0 1 31
1 69 1 l70 0 0 -7z m1 -208 c0 -1 1 -33 1 -72 2 -130 2 -138 0 -139 0 -1 -4
-1 -8 -2 -3 0 -7 0 -8 0 -2 0 -7 0 -11 1 -5 0 -32 1 -59 1 -31 -1 -51 0 -52 0
-1 1 -1 6 -1 18 l0 17 3 1 c1 1 5 1 7 1 10 -1 53 -2 69 -1 13 0 16 1 17 2 2 4
2 4 -47 4 -34 0 -48 0 -49 1 -1 1 -1 9 0 13 0 2 1 2 7 2 9 0 12 1 12 4 0 2 -1
3 -10 3 l-9 0 0 6 c-2 11 -6 10 43 10 43 0 43 0 47 2 4 2 5 3 3 3 -1 1 -17 2
-47 2 -35 0 -46 0 -46 1 -1 1 -1 9 -1 19 0 20 0 21 8 20 2 -1 23 -1 46 -1 40
0 42 0 44 2 1 1 1 2 0 3 -2 1 -10 1 -49 1 -41 0 -47 0 -48 2 -1 1 -1 3 -1 9 1
5 0 11 0 14 -1 4 -1 7 -1 9 l1 2 47 0 c26 0 48 0 49 0 3 1 4 5 2 6 -1 1 -21 1
-44 1 -24 0 -46 0 -48 1 l-5 1 -1 5 c0 3 0 7 1 8 1 1 1 3 0 4 -1 2 -2 12 -2
14 1 1 2 2 3 2 2 1 136 0 137 0z m2 -219 c1 -1 1 -21 1 -61 0 -33 0 -79 1
-101 0 -35 0 -40 -1 -41 -2 -1 -15 -1 -70 -1 -37 1 -68 1 -69 1 -1 1 -1 10 0
12 0 0 6 1 13 1 11 0 12 0 13 1 2 4 0 4 -13 5 -15 0 -15 1 -14 8 0 3 1 6 1 6
1 1 17 1 37 0 20 0 37 0 38 1 2 0 5 0 6 0 3 -2 8 0 9 2 1 3 -7 4 -68 4 -17 0
-23 0 -23 1 -1 1 0 5 0 10 0 5 0 12 0 17 -1 5 -1 9 0 11 1 2 1 2 6 2 3 -1 22
-1 41 -2 26 0 36 0 38 1 2 1 3 4 1 6 -1 0 -20 0 -44 0 l-42 0 0 6 c-1 4 -1 8
0 10 1 2 1 4 0 6 -1 3 -1 10 0 12 1 1 7 1 35 1 22 0 36 0 37 1 1 1 3 1 4 0 2
-1 3 -1 5 0 2 1 4 1 6 0 2 -1 3 -1 7 1 4 2 5 4 2 5 0 0 -6 0 -12 -1 -6 0 -11
0 -12 0 0 0 -16 1 -35 1 -26 0 -36 0 -37 1 -1 1 -1 3 -1 7 1 6 1 7 0 16 0 4 0
6 1 7 2 1 8 1 53 1 34 0 38 0 41 1 3 3 2 4 -2 5 -2 1 -23 1 -47 1 -44 0 -44 0
-45 2 -1 1 -1 4 -1 7 l1 6 4 0 c8 1 10 5 3 6 -7 1 -8 2 -8 9 0 3 0 6 0 6 1 1
139 0 140 0z m1 -212 c1 0 1 -24 1 -53 1 -29 1 -74 2 -101 0 -36 0 -48 -1 -50
-1 -1 -12 -1 -70 -1 -52 0 -69 0 -70 1 -1 2 -1 31 0 34 l1 2 44 0 c31 0 46 0
47 1 2 1 3 5 0 5 0 1 -22 1 -47 1 -42 0 -45 0 -45 2 -1 3 -1 33 0 34 1 0 21 1
46 1 34 0 44 0 46 1 2 1 3 3 1 5 -1 0 -22 1 -47 1 l-46 1 0 18 0 18 43 0 c24
0 45 0 47 1 3 0 4 2 3 4 -1 1 -9 2 -47 2 -30 0 -46 0 -46 1 -1 1 -2 22 -1 32
0 1 10 1 45 1 27 0 46 0 47 1 4 1 4 5 1 6 -1 0 -22 0 -47 0 -38 1 -45 1 -46 2
-1 2 -1 27 0 29 1 2 4 2 70 2 38 0 69 0 69 -1z m1 -212 c2 -1 2 -5 2 -40 1
-71 1 -168 0 -169 0 -1 -10 -1 -52 -1 -81 2 -86 2 -87 2 0 1 0 6 0 18 0 1 0 6
0 10 l0 7 46 0 c25 0 46 1 47 1 1 1 2 2 2 3 0 3 -1 3 -8 3 -4 1 -25 1 -47 1
-21 0 -39 0 -40 0 -1 1 -1 36 0 37 1 0 22 0 48 0 38 0 46 1 47 2 2 1 2 1 1 3
-2 1 -8 2 -49 2 -26 0 -47 1 -47 1 -1 0 -1 28 -1 32 0 2 3 2 47 2 41 0 47 0
48 2 2 2 0 3 -6 4 -3 1 -24 1 -46 1 -35 0 -41 0 -42 1 -3 3 -3 32 0 33 0 0 21
0 45 0 46 0 47 0 47 4 0 4 -3 4 -27 4 -12 -1 -32 0 -44 0 l-22 1 -1 6 c0 5 0
7 1 7 1 1 3 1 6 2 3 0 4 1 4 2 0 2 -2 3 -5 4 l-5 1 0 7 0 7 48 0 c26 0 57 1
68 1 15 0 21 0 22 -1z"/>
<path d="M369 4037 c-2 -2 -2 -3 -2 -17 -1 -23 0 -27 2 -29 2 -3 8 -2 11 1 2
2 2 3 2 9 -1 4 -1 13 -1 20 0 15 -1 17 -6 18 -3 0 -4 0 -6 -2z"/>
<path d="M405 4037 c-7 -4 -12 -13 -12 -21 0 -11 1 -16 7 -23 5 -5 12 -7 18
-6 7 1 11 6 15 16 3 10 2 16 -2 25 -3 5 -4 7 -8 9 -6 3 -13 3 -18 0z m13 -11
c1 -2 2 -4 2 -13 0 -11 0 -12 -2 -13 -4 -3 -8 -2 -9 0 -1 2 -1 7 -1 13 0 9 0
11 1 13 3 3 6 3 9 0z"/>
<path d="M457 4038 c-5 -1 -8 -4 -12 -12 -3 -7 -3 -8 -3 -14 1 -9 5 -17 11
-22 4 -3 5 -3 10 -3 5 0 6 0 10 3 2 2 4 6 6 8 3 5 3 6 3 15 0 10 -2 16 -7 21
-6 5 -10 6 -18 4z m8 -12 c3 -2 4 -6 4 -13 1 -5 1 -6 -1 -10 -3 -5 -7 -7 -10
-5 -1 2 -1 4 -1 14 0 14 0 16 4 16 2 0 3 -1 4 -2z"/>
<path d="M392 3833 c-14 -3 -21 -16 -14 -29 3 -6 7 -8 16 -8 4 0 7 0 7 -1 0
-2 -5 -4 -11 -4 -4 0 -7 -1 -8 -1 -2 -2 -1 -7 2 -9 3 -4 6 -4 15 -4 7 1 7 1
12 5 5 6 7 11 7 23 0 12 -2 17 -8 22 -7 7 -9 8 -18 6z m12 -16 c7 -9 -2 -17
-11 -8 -3 3 -3 4 -3 6 1 5 3 6 7 6 3 0 4 -1 7 -4z"/>
<path d="M438 3833 c-7 -3 -12 -11 -14 -22 -1 -7 -1 -8 0 -13 4 -13 12 -21 22
-22 5 0 6 0 10 3 8 6 10 9 11 20 2 13 1 18 -5 25 -2 2 -4 5 -5 6 -3 2 -16 4
-19 3z m17 -19 c3 -4 3 -18 1 -22 -3 -4 -7 -5 -12 -3 -5 2 -7 6 -7 14 0 5 1 7
3 12 2 3 4 5 5 5 3 1 8 -2 10 -6z"/>
<path d="M388 3624 c-1 -1 -4 -3 -6 -6 -3 -3 -3 -4 -3 -9 0 -4 1 -7 2 -9 l2
-3 -3 -6 c-2 -4 -2 -6 -2 -11 1 -12 8 -17 23 -17 10 0 11 0 18 7 l4 4 -1 8 c0
4 -2 9 -3 11 -2 4 -2 5 -1 9 2 7 1 12 -2 17 -4 6 -7 7 -17 7 -6 0 -8 0 -11 -2z
m18 -13 c1 -1 2 -2 2 -4 0 -3 -1 -3 -5 -5 -4 -2 -4 -2 -7 -1 -3 2 -3 7 0 10 3
2 7 3 10 0z m-1 -21 c7 -3 3 -13 -5 -13 -8 0 -12 7 -7 12 3 2 8 3 12 1z"/>
<path d="M444 3625 c-6 -1 -10 -5 -13 -13 -3 -6 -3 -7 -3 -17 1 -13 3 -19 10
-26 6 -6 12 -6 21 -3 5 2 9 9 13 18 2 6 2 7 1 16 -1 12 -5 18 -11 22 -6 4 -12
5 -18 3z m9 -15 c4 -3 6 -9 5 -17 -1 -11 -4 -15 -10 -13 -6 1 -9 11 -6 23 1 5
4 9 6 9 1 0 3 -1 5 -2z"/>
<path d="M402 3413 c-2 0 -6 0 -9 0 -5 0 -6 0 -8 -3 -3 -3 -3 -6 0 -9 2 -3 2
-3 12 -2 l9 0 0 -3 c0 -3 -1 -6 -5 -10 -2 -4 -6 -11 -8 -16 l-4 -8 2 -4 c2 -4
3 -4 7 -4 2 0 5 0 6 1 1 0 4 7 7 16 3 8 6 15 7 16 0 1 2 4 3 7 1 3 3 6 3 7 2
1 1 6 -1 8 -1 1 -5 3 -9 3 -7 2 -7 2 -12 1z"/>
<path d="M442 3411 c-8 -4 -15 -16 -15 -27 0 -22 7 -32 22 -31 6 0 7 0 11 3 4
3 6 5 10 14 2 6 2 22 -1 28 -2 4 -9 12 -13 13 -3 1 -11 1 -14 0z m14 -17 c3
-3 3 -4 3 -11 0 -9 -2 -13 -6 -15 -3 -1 -3 -1 -7 3 -6 5 -7 9 -5 17 3 10 9 13
15 6z"/>
<path d="M399 3189 c-5 -3 -11 -11 -14 -18 -2 -5 -2 -21 1 -27 2 -7 9 -11 19
-12 9 0 12 1 16 10 6 11 5 18 -3 25 -3 3 -5 4 -9 4 -2 1 -5 1 -5 2 -2 1 1 3 5
5 5 1 7 3 7 7 0 9 -8 11 -17 4z m13 -28 c0 -1 1 -3 1 -6 1 -3 1 -4 -2 -6 -3
-2 -7 -2 -10 1 -2 3 -3 4 -1 8 2 4 9 6 12 3z"/>
<path d="M444 3191 c-1 -1 -5 -3 -7 -6 -4 -4 -5 -6 -7 -11 -1 -7 -1 -19 0 -24
5 -12 11 -17 21 -18 4 -1 5 -1 10 2 4 2 6 5 12 15 2 4 2 20 0 27 -4 9 -7 12
-13 14 -7 2 -11 2 -16 1z m14 -19 c4 -7 2 -17 -3 -22 -8 -8 -14 3 -11 18 1 6
4 8 8 8 3 0 4 -1 6 -4z"/>
<path d="M449 2982 c-6 -2 -9 -5 -12 -11 -3 -7 -5 -18 -4 -22 0 -2 2 -7 3 -11
1 -7 2 -9 5 -11 5 -4 7 -5 14 -4 6 1 8 1 9 3 2 2 4 5 6 7 7 8 7 29 0 41 -2 2
-4 4 -8 6 -7 3 -7 3 -13 2z m7 -13 c2 -1 3 -3 4 -5 1 -3 1 -15 -1 -21 -1 -6
-8 -8 -11 -3 -2 3 -3 16 -3 20 1 5 4 10 7 10 0 0 2 -1 4 -1z"/>
<path d="M393 2980 c-2 -2 -3 -3 -2 -15 0 -8 0 -8 3 -12 4 -3 8 -4 13 -2 3 1
5 0 6 -4 0 -3 0 -5 -1 -7 -2 -3 -3 -4 -5 -4 -2 0 -5 1 -6 2 -4 2 -8 3 -10 1
-2 -2 -1 -11 0 -12 5 -5 19 -5 26 -1 7 5 13 15 12 22 -1 4 -5 9 -9 12 -1 0 -4
1 -7 2 -6 0 -7 1 -7 4 0 1 2 2 9 2 7 0 9 0 11 2 1 2 1 2 0 5 -3 5 -7 6 -20 6
-8 0 -12 0 -13 -1z"/>
<path d="M407 2762 c-13 -14 -27 -31 -27 -33 0 -1 1 -3 1 -5 2 -3 5 -4 19 -4
8 0 12 0 13 -1 1 -1 2 -4 2 -8 1 -7 3 -10 6 -9 5 2 7 4 8 11 0 5 1 6 4 9 3 3
3 3 7 -4 4 -7 13 -10 25 -6 3 1 6 2 7 4 4 6 5 9 4 24 0 14 0 15 -3 21 -3 5 -3
6 -9 8 -8 4 -13 3 -20 -3 -7 -6 -8 -9 -9 -22 0 -6 0 -11 -1 -11 0 0 -1 1 -3 2
l-4 2 0 15 c0 14 -1 16 -2 18 -4 4 -7 3 -18 -8z m51 -7 c4 -4 7 -15 5 -22 -1
-4 -7 -10 -9 -9 -1 0 -3 2 -4 4 -2 4 -2 6 -2 13 1 12 2 15 6 15 1 0 3 -1 4 -1z
m-42 -13 c1 -6 1 -7 -6 -7 -5 0 -7 1 -7 2 0 2 9 10 10 10 1 0 2 -2 3 -5z"/>
<path d="M392 2557 c-1 -1 -3 -1 -4 -2 -2 -2 -5 -9 -5 -11 0 -3 4 -9 5 -9 1 0
3 2 6 5 2 2 5 4 6 4 5 0 6 -1 6 -6 0 -2 -1 -3 -3 -5 -2 -2 -4 -4 -4 -5 0 -3 4
-7 7 -7 2 0 6 -3 6 -5 0 -3 -1 -5 -4 -7 -4 -1 -6 -1 -10 1 -6 3 -10 3 -13 0
-2 -3 -3 -8 0 -9 1 0 3 -2 5 -3 5 -5 15 -5 26 -1 3 0 5 2 5 3 1 1 2 3 4 4 5 5
5 14 -1 21 -2 2 -2 3 -1 11 0 8 0 8 -3 11 -6 7 -11 9 -18 10 -4 0 -8 0 -10 0z"/>
<path d="M451 2554 c-10 -5 -15 -14 -15 -28 0 -9 2 -20 5 -25 4 -6 15 -9 25
-6 3 1 5 2 8 7 5 9 7 15 7 24 -2 13 -2 16 -5 19 -1 1 -3 4 -4 5 -1 2 -4 3 -8
4 -7 2 -9 2 -13 0z m9 -14 c3 -2 5 -6 6 -14 0 -8 -1 -14 -4 -17 -2 -1 -2 -1
-5 0 -5 3 -7 9 -7 23 0 4 0 6 2 7 3 2 4 2 8 1z"/>
<path d="M450 2345 c-4 -1 -12 -5 -13 -8 -1 -1 -3 -6 -4 -10 -2 -9 -1 -21 2
-28 1 -2 2 -5 2 -6 0 -2 9 -10 14 -12 4 -1 5 -1 10 1 7 2 9 3 12 10 5 9 6 22
3 33 -3 10 -4 12 -9 16 -5 4 -11 5 -17 4z m8 -16 c4 -3 5 -5 5 -16 0 -10 -2
-14 -6 -16 -7 -1 -9 2 -9 18 0 8 0 11 1 13 2 4 4 4 9 1z"/>
<path d="M397 2343 c-3 -2 -7 -4 -8 -6 -5 -6 -4 -10 3 -14 4 -3 6 -3 9 1 4 7
10 7 9 -1 -1 -1 -5 -6 -9 -11 -10 -11 -12 -14 -12 -20 0 -7 1 -8 16 -8 7 -1
15 -1 16 -1 4 -2 11 8 8 12 0 1 -3 2 -9 2 -7 0 -9 0 -10 1 0 1 2 5 7 9 6 6 6
7 7 11 2 10 -1 18 -7 24 -4 3 -5 3 -10 3 -4 0 -7 -1 -10 -2z"/>
<path d="M437 2126 c-5 -2 -8 -5 -11 -13 -2 -5 -2 -8 -2 -14 0 -14 5 -24 16
-31 4 -2 5 -2 10 -2 9 1 18 8 20 16 1 2 1 8 2 14 0 11 -1 16 -7 24 -2 4 -4 5
-8 6 -7 2 -13 2 -20 0z m17 -15 c3 -4 4 -6 4 -14 0 -10 -4 -16 -10 -16 -3 0
-8 5 -10 10 -2 7 -1 17 3 21 3 3 9 3 13 -1z"/>
<path d="M397 2120 c0 -1 -1 -2 0 -2 0 -1 0 -11 0 -22 1 -18 1 -22 2 -25 1 -1
3 -3 4 -3 2 -1 10 2 10 3 0 1 0 12 0 25 0 27 1 26 -9 26 -5 0 -6 0 -7 -2z"/>
<path d="M424 1911 c-8 -4 -11 -8 -14 -16 -2 -6 -2 -8 -1 -16 2 -19 8 -27 21
-32 8 -3 11 -2 20 2 6 3 6 3 10 11 5 11 6 23 3 31 -3 9 -6 13 -10 17 -5 4 -7
5 -16 5 -7 1 -8 1 -13 -2z m20 -14 c5 -6 5 -8 5 -16 0 -11 -1 -15 -7 -17 -5
-2 -8 -2 -12 2 -5 4 -6 7 -6 15 0 6 0 9 2 11 4 7 14 9 18 5z"/>
<path d="M448 1702 c-6 -2 -9 -6 -13 -13 -3 -5 -3 -7 -3 -14 -1 -18 3 -30 11
-35 5 -3 13 -4 20 -2 13 4 20 16 19 34 0 7 0 11 -1 14 -3 6 -10 13 -16 15 -6
2 -14 2 -17 1z m13 -17 c4 -2 5 -7 5 -16 0 -7 0 -8 -3 -12 -2 -4 -3 -5 -7 -5
-3 0 -4 0 -6 3 -4 4 -5 15 -2 23 1 4 3 7 3 7 2 1 8 1 10 0z"/>
<path d="M406 1697 c-1 -2 -1 -9 -1 -27 0 -24 0 -25 2 -27 1 -1 3 -1 8 0 8 1
8 2 7 17 -1 6 -1 15 -1 21 0 11 -1 15 -6 17 -4 2 -8 1 -9 -1z"/>
<path d="M453 1486 c-3 -1 -6 -2 -6 -2 -1 0 -7 -11 -8 -16 -6 -18 2 -41 17
-44 7 -1 9 -1 12 1 4 2 12 9 12 11 0 0 1 3 2 5 4 6 4 13 3 22 -2 8 -5 13 -11
18 -4 4 -10 7 -14 7 -1 0 -4 -1 -7 -2z m14 -19 c3 -5 3 -16 0 -23 -3 -6 -4 -7
-10 -6 -3 1 -3 2 -5 5 -4 9 -2 20 4 27 3 3 3 3 6 1 2 0 4 -3 5 -4z"/>
<path d="M406 1484 c-11 -4 -13 -7 -11 -13 2 -5 5 -6 11 -3 6 3 8 3 8 0 0 -3
-2 -6 -9 -13 -3 -4 -7 -9 -8 -11 -2 -4 -2 -14 0 -16 2 -2 29 -4 33 -2 6 3 8 7
4 10 -1 2 -3 2 -9 2 -4 0 -8 0 -8 1 -1 2 2 8 5 10 5 3 9 12 9 18 0 7 -2 11
-10 15 -7 4 -9 5 -15 2z"/>
<path d="M406 1276 c-6 -2 -9 -5 -11 -9 -1 -4 -1 -5 1 -7 2 -2 2 -2 6 0 4 2
10 2 13 -1 4 -3 2 -7 -5 -11 -8 -4 -9 -6 -5 -9 2 -1 4 -2 7 -2 3 0 4 -1 5 -2
5 -8 -1 -12 -13 -9 -7 1 -9 0 -11 -3 0 -3 2 -6 7 -10 3 -3 5 -3 11 -4 7 -1 8
-1 13 2 5 2 6 3 9 9 3 7 3 8 3 16 0 3 -1 5 -3 7 -3 4 -3 4 -1 6 0 2 1 5 1 8 0
4 -1 6 -3 9 -8 10 -14 13 -24 10z"/>
<path d="M457 1275 c-11 -4 -18 -22 -15 -38 1 -3 3 -9 4 -12 4 -7 4 -8 10 -11
6 -3 8 -3 12 -2 7 0 10 2 15 7 3 4 4 6 5 11 1 3 2 8 2 10 2 6 0 14 -4 22 -5
12 -18 17 -29 13z m13 -15 c3 -2 3 -3 4 -12 1 -10 1 -10 -1 -15 -2 -4 -5 -6
-9 -5 0 0 -3 3 -4 6 -2 4 -3 6 -3 12 0 7 2 14 4 15 3 2 6 1 9 -1z"/>
<path d="M214 4000 c-4 -3 1 -7 6 -5 3 1 4 4 2 6 -2 1 -7 1 -8 -1z"/>
<path d="M157 4000 c-1 -1 -1 -3 -1 -3 2 -4 18 -1 17 2 -1 2 -14 2 -16 1z"/>
<path d="M213 3956 c-1 -1 2 -5 4 -5 2 0 1 2 -1 4 -2 2 -3 2 -3 1z"/>
<path d="M169 3186 c-1 -1 -1 -2 1 -3 2 -3 30 -3 31 0 0 0 -1 2 -2 3 -2 1 -14
1 -17 0 -3 -2 -4 -2 -6 0 -4 1 -5 1 -7 0z"/>
<path d="M198 3145 c0 0 -3 0 -5 -1 -3 0 -4 -1 -4 -2 0 -2 13 -3 14 0 1 2 -3
5 -5 3z"/>
<path d="M140 3061 c-2 -2 -1 -5 3 -5 3 1 4 3 1 5 -1 1 -2 1 -4 0z"/>
<path d="M182 2849 c-1 -3 1 -4 5 -4 7 0 7 4 0 5 -3 0 -4 0 -5 -1z"/>
<path d="M164 2630 c0 -2 4 -3 6 -2 2 1 -1 4 -4 4 -1 0 -2 -1 -2 -2z"/>
<path d="M195 2545 c-2 -1 -2 -2 -1 -3 2 -3 7 -2 11 0 3 1 3 1 5 0 3 -2 8 -1
9 1 1 2 -3 4 -6 3 -4 0 -5 0 -11 0 -4 1 -5 1 -7 -1z"/>
<path d="M1884 4417 c-29 -2 -43 -5 -50 -8 -2 -2 -7 -3 -10 -4 -3 -1 -8 -3
-11 -5 -4 -2 -9 -4 -11 -6 -3 -1 -7 -4 -10 -5 -2 -2 -4 -3 -5 -3 0 0 -5 -3
-10 -7 -11 -7 -26 -21 -31 -28 -1 -3 -4 -6 -5 -8 -3 -3 -9 -15 -15 -26 -1 -3
-3 -7 -4 -10 0 -2 -2 -8 -3 -12 -1 -4 -3 -12 -3 -18 -1 -6 -2 -12 -3 -14 -1
-2 -2 -12 -2 -22 -1 -12 -2 -21 -3 -24 -2 -6 -2 -10 -1 -41 1 -47 1 -125 -1
-130 -1 -4 -1 -4 1 -7 2 -4 2 -5 1 -18 0 -7 -1 -14 0 -14 0 -1 0 -6 1 -13 0
-11 0 -12 -2 -14 -2 -2 -2 -3 0 -5 2 -4 2 -14 3 -197 0 -80 0 -152 1 -159 0
-8 0 -16 0 -18 0 -2 0 -34 0 -72 0 -38 0 -80 0 -95 1 -15 1 -79 1 -143 1 -65
1 -135 1 -156 2 -97 2 -120 2 -123 0 -27 1 -250 2 -287 0 -12 1 -22 1 -23 1
-1 1 -5 0 -9 -1 -8 0 -205 1 -295 0 -33 0 -107 0 -165 0 -86 1 -104 2 -105 1
-2 1 -2 0 -4 -2 -2 -2 -5 -1 -20 0 -10 1 -18 0 -18 0 -1 0 -19 0 -40 0 -22 0
-55 0 -73 0 -18 0 -38 1 -44 1 -11 0 -14 -3 -29 -1 -4 -2 -4 -4 -4 -1 1 -79 1
-172 2 -128 0 -170 0 -172 -1 -3 -1 -3 -6 0 -7 2 -2 25 -2 174 -2 94 0 171 0
172 0 1 1 1 2 1 3 0 1 1 1 3 0 1 -2 1 -22 0 -25 -1 -2 -1 -5 0 -9 1 -8 1 -114
0 -117 -1 -2 -1 -4 0 -5 0 -1 1 -25 1 -58 0 -68 0 -281 0 -301 -1 -93 0 -261
1 -266 2 -14 3 -20 3 -24 0 -6 4 -17 8 -22 2 -3 3 -5 3 -5 0 -1 3 -4 6 -7 3
-4 11 -12 18 -19 6 -6 13 -12 15 -13 1 -1 4 -3 6 -5 1 -2 4 -4 7 -6 2 -2 6 -5
9 -8 3 -3 8 -7 11 -10 11 -9 16 -17 19 -24 2 -5 2 -6 1 -32 0 -27 0 -28 -3
-34 -2 -4 -3 -7 -3 -8 0 -1 -2 -5 -4 -10 -3 -5 -6 -12 -7 -17 -1 -4 -3 -9 -4
-10 -2 -6 -5 -31 -6 -48 0 -21 -2 -369 -1 -416 0 -25 0 -32 1 -35 1 -1 2 -5 2
-7 0 -5 2 -13 5 -16 0 -2 1 -4 1 -5 1 -2 3 -7 6 -12 9 -17 35 -39 52 -45 3 -1
6 -2 8 -2 1 0 5 -1 8 -2 6 -2 9 -2 29 -2 19 0 23 0 27 1 2 1 6 2 8 3 2 0 8 2
12 3 14 3 29 12 43 25 10 10 21 24 21 28 0 0 1 3 3 6 1 3 2 7 3 10 0 2 1 8 2
12 2 7 2 17 2 217 1 143 1 214 0 223 -1 7 -1 17 -2 21 0 11 -8 49 -11 56 0 2
-3 8 -5 13 -2 5 -4 12 -6 15 l-3 7 0 27 0 28 3 8 3 9 21 20 c11 11 22 21 25
24 6 4 8 6 19 17 7 7 21 27 21 30 0 0 1 2 3 4 3 4 3 4 4 17 0 10 0 15 -1 17
-1 4 -2 191 -2 291 0 27 0 61 0 76 0 44 0 282 1 338 0 28 0 52 0 53 0 1 0 6
-1 11 0 4 0 10 0 13 0 3 0 19 0 37 0 123 0 246 0 310 1 90 1 80 1 101 0 10 0
19 0 21 0 2 0 76 0 165 -1 147 -1 161 -2 163 -2 1 -2 3 -1 6 0 2 1 4 1 5 2 2
2 11 0 17 -2 5 -2 7 -2 25 0 11 0 22 1 24 1 2 1 5 0 9 -1 6 -1 41 -4 379 0 49
0 104 -1 123 0 20 0 36 1 41 1 6 1 9 0 13 -1 4 -1 17 -1 43 0 44 0 39 0 84 -1
60 -2 140 -3 221 0 42 0 94 0 115 -1 20 -1 85 -2 144 0 59 -1 115 -1 125 0 9
0 48 0 85 0 46 0 70 -1 74 -1 4 -1 10 -1 15 -1 5 -1 11 -2 14 0 2 -1 7 -2 11
-1 10 -5 26 -7 32 -1 3 -2 6 -2 7 0 2 -5 14 -12 29 -2 4 -5 9 -6 11 -2 2 -4 5
-5 7 -2 5 -10 15 -22 25 -11 11 -17 15 -27 20 -3 1 -8 4 -11 6 -3 2 -6 4 -8 5
-1 0 -5 1 -7 2 -13 7 -43 14 -57 14 -5 0 -12 0 -16 1 -4 0 -13 0 -19 -1z m30
-13 c24 -1 31 -3 36 -5 2 -1 5 -2 6 -2 2 0 5 -1 9 -3 3 -1 11 -5 17 -8 19 -9
27 -15 40 -28 8 -8 14 -15 20 -25 6 -8 14 -24 15 -30 1 -4 3 -8 5 -10 1 -2 2
-4 2 -5 0 0 1 -5 3 -10 2 -5 3 -10 3 -11 0 -1 1 -3 1 -5 1 -1 3 -9 3 -17 1 -8
2 -15 3 -15 0 -1 0 -4 1 -48 2 -46 2 -227 1 -229 -1 -1 -1 -3 0 -6 1 -4 2 -44
3 -154 0 -38 0 -77 0 -87 1 -10 0 -20 0 -21 -1 -1 -1 -5 0 -8 0 -4 1 -54 2
-112 0 -58 1 -110 1 -115 0 -5 0 -12 0 -14 -1 -3 -1 -10 -1 -15 1 -13 1 -130
1 -132 -1 0 0 -2 0 -5 1 -4 2 -124 4 -387 1 -188 1 -185 2 -188 1 -2 1 -3 0
-7 -1 -5 -1 -11 1 -28 1 -8 0 -104 0 -153 -1 -17 -1 -32 -1 -34 0 -2 0 -6 0
-10 0 -4 0 -11 0 -16 0 -5 0 -18 0 -28 0 -11 0 -26 0 -35 0 -14 0 -44 0 -59 0
-8 0 -110 0 -114 0 -28 0 -61 -1 -65 -1 -4 -1 -6 0 -11 2 -9 3 -124 2 -293 -1
-38 -1 -73 -1 -78 0 -35 0 -152 0 -156 0 -4 0 -34 0 -67 1 -71 1 -140 0 -147
0 -7 0 -19 0 -20 1 0 0 -9 0 -18 -1 -12 -1 -19 0 -21 1 -1 1 -49 2 -121 0
-144 0 -132 -1 -137 -1 -2 -2 -6 -2 -7 0 -2 -1 -6 -3 -9 -2 -3 -5 -9 -7 -13
-3 -6 -6 -9 -9 -12 -5 -4 -24 -20 -26 -22 0 -1 -6 -6 -12 -12 -11 -11 -31 -31
-33 -35 -1 -4 -6 -17 -6 -21 -1 -7 -2 -44 -1 -51 1 -5 2 -10 6 -19 4 -6 7 -12
8 -13 3 -4 13 -47 14 -62 0 -4 0 -98 1 -208 0 -111 0 -210 0 -221 0 -21 0 -26
-5 -43 -5 -23 -13 -32 -41 -50 -12 -8 -39 -16 -60 -17 -11 0 -25 2 -39 6 -12
3 -15 5 -24 11 -3 3 -8 6 -11 9 -9 5 -18 17 -24 28 -4 8 -8 24 -8 39 0 4 0 61
0 127 1 66 1 166 1 224 1 70 1 105 2 107 1 2 1 5 1 7 0 3 6 23 9 31 2 2 6 10
9 17 3 7 7 14 7 16 1 5 2 45 1 59 -1 15 -3 22 -7 26 -1 2 -4 5 -5 8 -1 2 -3 4
-5 5 -1 1 -3 3 -4 4 -1 2 -5 6 -10 10 -6 5 -9 8 -8 8 2 2 -1 4 -3 3 -2 -2 -8
2 -10 6 -2 1 -4 3 -5 4 -2 1 -3 2 -3 2 0 0 -3 3 -7 5 -13 9 -24 21 -25 29 -1
1 -2 4 -4 5 -6 7 -11 25 -8 31 1 1 1 3 0 7 -1 3 -1 24 -2 50 0 24 0 57 -1 73
0 15 0 60 -1 99 0 69 0 71 2 71 2 1 138 0 139 0 0 -1 0 -26 0 -183 -1 -129 -1
-151 -2 -154 -1 -3 -1 -4 0 -7 1 -4 1 -24 1 -82 l0 -77 -5 -14 c-3 -8 -7 -18
-8 -21 -4 -9 -12 -29 -16 -39 l-2 -7 -1 -60 c-1 -144 0 -377 2 -387 1 -7 4
-17 6 -21 3 -7 20 -23 26 -27 3 -2 8 -4 12 -6 4 -1 9 -3 10 -4 3 -3 14 -4 19
-3 3 0 6 0 9 0 7 0 24 5 33 11 9 5 18 14 23 22 2 4 5 8 7 10 3 5 5 13 5 25 1
14 2 170 2 301 0 114 0 124 -4 143 -1 11 -12 36 -18 45 -6 8 -17 32 -18 37 0
2 0 140 0 305 -1 165 -1 319 -1 342 0 132 0 213 0 364 1 52 1 93 1 121 0 2 0
17 0 32 1 34 1 58 1 119 -1 27 -1 51 -1 53 0 1 0 9 0 16 -1 23 0 58 1 106 0
26 0 52 0 60 0 13 -1 117 0 125 0 16 -1 72 -1 73 -4 1 -4 1 -3 13 0 6 1 12 1
13 0 1 0 26 0 54 0 28 0 51 0 52 -1 1 -1 57 -2 125 0 69 -1 135 -1 147 0 13 0
25 1 28 0 3 0 7 0 10 -1 3 -1 45 -1 94 -1 48 -1 92 -1 97 -1 4 -1 54 -2 110 0
55 0 106 -1 112 0 16 -2 251 -3 406 0 53 0 109 0 125 -1 15 -1 78 -2 139 0
109 0 111 -2 116 -7 18 -12 25 -22 30 -7 3 -27 2 -34 -3 -9 -5 -16 -14 -16
-18 0 -1 -1 -5 -2 -8 -1 -4 -2 -10 -3 -14 0 -5 0 -15 -1 -23 0 -8 0 -16 0 -18
1 -2 1 -21 1 -43 0 -38 0 -39 -2 -40 -1 -1 -24 -1 -70 -1 l-68 0 0 20 c0 39 1
108 2 112 0 2 2 7 2 12 5 21 7 30 11 36 0 1 2 6 3 9 2 4 4 8 5 10 1 2 2 3 2 4
0 0 2 4 5 8 5 6 8 9 18 20 5 6 20 18 25 21 3 2 7 4 9 6 7 6 31 16 49 20 12 3
28 5 37 4 3 0 15 -1 25 -2z m-6 -121 c2 -1 5 -3 8 -5 5 -4 6 -5 9 -12 l3 -8 0
-71 c1 -40 1 -115 2 -169 0 -54 0 -111 1 -127 0 -16 0 -63 0 -104 1 -41 1 -84
1 -96 1 -13 1 -44 1 -70 1 -43 1 -83 3 -191 0 -35 1 -140 2 -253 0 -37 0 -96
1 -131 0 -35 0 -66 0 -69 0 -3 0 -8 0 -11 1 -26 2 -148 2 -161 -1 -9 -1 -18
-1 -20 0 -13 1 -109 2 -119 0 -8 0 -17 0 -20 -1 -12 0 -26 1 -57 1 -16 1 -34
0 -39 0 -9 0 -36 0 -86 0 -14 0 -28 0 -31 -1 -9 -1 -16 -1 -38 1 -10 0 -18 0
-19 -1 0 -2 0 -3 1 -1 1 -2 1 -4 0 -2 -1 -4 -1 -5 -1 -1 1 -3 0 -4 0 -1 -1 -8
-1 -15 -2 -7 0 -14 0 -15 -1 -2 0 -4 1 -6 1 -4 2 -4 2 -4 6 0 2 0 20 -1 41 0
20 0 89 -1 154 0 64 0 118 -1 119 -1 2 -1 18 -1 69 0 24 0 53 0 64 0 11 0 23
0 26 0 14 0 27 -1 32 -1 22 -2 167 -1 169 1 2 1 4 0 7 0 2 -1 25 -1 65 0 33 0
70 0 82 -1 16 -1 64 -1 85 0 1 0 23 0 48 -1 25 -1 86 -1 137 -1 50 -1 100 -2
111 0 30 0 140 1 144 0 2 0 10 -1 19 0 8 0 17 0 19 1 2 1 5 0 7 -1 4 -2 99 -1
103 1 2 1 4 0 5 -1 2 -2 119 -2 192 0 22 0 42 0 44 -1 6 0 114 0 123 1 23 13
38 30 39 2 0 5 0 6 -1z m-48 -169 c1 0 1 -24 2 -53 0 -38 0 -54 -1 -54 -1 -2
-6 -2 -27 -1 -45 0 -77 0 -95 0 -11 0 -19 0 -20 0 -1 1 -1 10 0 12 1 1 5 2 27
2 14 0 26 0 27 0 2 1 1 4 -1 6 -2 2 -3 2 -26 2 -14 0 -25 0 -26 0 -1 1 -1 62
0 64 1 1 6 1 24 1 23 0 28 1 31 4 1 1 1 1 0 3 -2 1 -6 1 -28 1 -13 -1 -25 0
-26 0 -2 1 -2 9 -1 12 l1 2 69 0 c39 0 70 0 70 -1z m-45 -117 c25 -1 46 -1 46
-2 1 -1 2 -107 1 -108 -2 -1 -18 -1 -74 -1 -73 0 -67 -1 -68 3 -1 4 0 10 1 11
1 1 9 2 26 2 21 0 24 1 25 2 1 1 1 2 1 3 -1 2 -4 2 -25 2 -19 0 -25 0 -26 1
-2 1 -2 3 -2 9 1 4 1 9 1 11 0 10 -1 28 -2 35 0 7 0 7 2 8 1 0 13 1 26 1 13 1
24 2 25 2 3 2 2 4 -1 5 -2 0 -13 1 -26 1 -13 0 -24 0 -25 0 -1 1 -1 13 0 14 2
1 16 2 36 1 7 0 34 0 59 0z m46 -120 c1 -2 2 -6 2 -25 0 -77 0 -80 -2 -82 -2
-2 -138 -3 -139 -1 -1 2 -1 12 0 14 1 1 5 2 26 2 24 0 27 0 27 4 0 3 -2 4 -27
3 -17 0 -25 0 -26 1 -2 2 -1 10 1 15 1 3 1 4 0 6 -2 6 -3 14 -1 18 1 2 1 4 0
6 0 2 -1 6 -2 8 -1 8 -1 8 27 9 13 0 25 1 26 1 3 1 2 4 0 5 -2 0 -14 1 -27 1
-18 0 -25 0 -25 1 -1 1 -1 4 -1 8 l1 6 9 0 c5 0 37 1 70 1 52 0 60 0 61 -1z
m1 -118 c1 0 1 -24 2 -52 0 -40 0 -52 -1 -54 -1 -1 -11 -1 -70 -1 -67 0 -69 0
-70 2 -1 2 -1 9 0 11 1 1 7 1 27 2 24 0 26 0 27 2 1 2 1 3 0 4 -1 1 -5 1 -27
1 -18 0 -25 0 -26 1 -2 1 -2 3 -1 43 0 0 0 4 -1 8 0 5 0 8 1 8 0 1 12 1 25 2
14 0 25 0 26 1 1 0 2 6 1 6 0 0 -12 1 -26 1 l-26 1 -1 7 c0 4 0 7 0 7 0 0 22
1 48 1 51 1 91 0 92 -1z m1 -116 c1 0 1 -17 2 -53 0 -43 0 -52 -1 -53 -2 -1
-137 -2 -139 -1 -1 1 -1 14 0 15 1 0 12 0 25 1 13 0 25 0 26 1 2 0 2 1 2 3 l0
3 -27 0 -26 1 -1 7 c0 4 0 8 1 9 1 2 1 3 -1 6 -1 4 -1 6 -1 10 1 7 1 9 0 19 0
5 0 8 1 9 1 1 5 1 24 1 23 0 24 0 26 2 1 2 1 2 0 4 -1 1 -5 1 -25 1 -12 0 -23
0 -24 1 -2 0 -2 1 -2 7 l1 8 11 0 c23 1 127 0 128 -1z m2 -129 c1 -23 2 -94 1
-96 -1 -1 -10 -1 -71 -1 l-69 0 -1 5 c0 4 0 7 1 8 1 1 6 1 25 1 22 0 25 0 26
2 0 1 1 2 1 3 0 2 -1 2 -25 2 -19 0 -25 0 -27 1 -1 1 -2 13 0 16 0 1 0 6 -1
10 0 5 -1 9 0 12 1 4 1 7 0 11 -1 3 -1 7 -1 10 l1 4 7 0 c3 0 14 1 24 1 19 0
22 1 21 5 -1 1 -2 2 -26 2 -13 1 -25 1 -26 2 -1 0 -1 13 0 15 1 1 18 1 70 1
l70 0 0 -14z m1 -107 c1 -1 2 -43 2 -62 0 -6 0 -19 0 -29 0 -13 0 -17 -1 -18
-1 -1 -20 -1 -71 -1 l-69 0 0 7 0 8 25 0 c22 0 26 0 27 2 1 1 2 2 2 3 0 2 -4
3 -18 2 -29 -1 -36 -1 -37 0 -1 2 0 12 1 16 1 2 1 4 0 7 -2 3 -2 5 -2 10 1 7
1 12 0 21 -1 10 0 10 18 10 8 0 19 0 24 0 7 0 9 0 10 1 2 2 2 5 -1 6 -1 0 -12
1 -25 1 -13 0 -25 0 -25 1 -2 0 -1 14 0 15 1 0 28 1 60 1 71 1 79 1 80 -1z m1
-120 c1 0 1 -24 1 -53 1 -40 1 -52 0 -53 -1 -1 -26 -1 -70 -1 -78 -1 -72 -2
-71 7 0 3 0 6 1 6 0 0 11 1 25 1 20 1 25 1 26 2 1 2 1 2 0 4 -2 1 -5 1 -26 1
-15 1 -24 1 -25 2 -1 0 -1 4 -1 8 0 3 0 9 0 11 0 11 0 18 0 21 0 1 0 6 -1 11
l0 9 2 1 c2 1 13 1 26 1 25 0 27 0 26 5 -1 2 -2 2 -27 2 -15 0 -25 0 -26 1 -1
1 -2 11 -1 13 1 1 5 2 23 2 31 1 117 0 118 -1z m0 -116 c2 -1 2 -2 2 -55 0
-37 -1 -53 -1 -54 -1 0 -32 -1 -69 -1 -78 0 -72 -1 -72 9 0 3 1 5 1 6 1 0 8 1
16 1 33 0 36 0 37 2 1 2 1 2 -1 4 -2 2 -3 2 -25 2 -15 -1 -23 -1 -25 0 -3 1
-3 1 -3 7 0 4 1 7 2 9 1 3 1 3 0 7 -2 3 -2 5 -2 10 1 8 1 12 0 20 0 6 0 8 2 9
1 1 7 1 21 1 23 0 28 1 29 3 2 4 0 4 -25 4 -23 0 -24 0 -26 2 -2 2 -2 6 -1 11
0 2 1 3 6 3 9 1 132 1 134 0z m2 -119 c1 -2 1 -109 0 -111 0 0 -3 -1 -5 -1 -8
-1 -113 -1 -125 0 -12 0 -12 0 -11 10 l1 7 3 0 c2 0 13 0 25 0 23 1 25 1 25 4
2 3 0 4 -27 4 -14 1 -26 1 -26 1 0 1 0 7 0 18 0 2 0 7 -1 10 0 5 0 9 1 11 1 4
1 5 0 9 -2 5 -2 12 0 15 1 1 6 1 25 0 20 0 23 0 25 1 3 2 4 3 1 6 -1 1 -4 1
-27 1 l-25 0 -1 7 c0 6 0 8 1 8 1 1 25 2 71 2 60 0 69 -1 70 -2z m0 -122 c1 0
2 -77 1 -87 0 -2 0 -5 0 -8 1 -3 1 -4 -1 -5 -1 -2 -4 -2 -29 -2 -16 0 -40 0
-54 -1 -27 -1 -54 0 -56 1 -1 2 -1 10 0 11 1 1 10 1 28 1 15 1 27 1 27 1 0 0
0 1 0 3 0 2 -1 3 -3 3 -2 1 -14 1 -27 1 -13 0 -24 0 -25 0 -1 1 -1 13 0 18 1
2 1 4 0 6 -2 6 -2 10 -1 15 2 4 2 6 1 8 -2 4 -2 11 -1 13 2 1 4 1 25 2 13 0
24 0 26 1 2 0 3 2 2 5 0 2 -1 2 -16 2 -9 0 -19 1 -21 1 -2 1 -7 1 -9 2 -5 0
-6 1 -7 5 -1 5 -1 5 16 5 8 -1 15 -1 15 -2 3 -2 6 -2 11 0 4 1 12 2 33 2 42 1
64 1 65 -1z m-39 -110 c30 0 38 -1 39 -2 1 -1 2 -7 2 -26 0 -13 0 -36 0 -50 1
-28 1 -33 -3 -31 -1 0 -3 0 -4 0 -2 0 -7 0 -10 -1 -8 0 -15 0 -20 0 -2 0 -13
0 -25 0 -17 0 -22 0 -25 1 -3 2 -4 1 -10 0 -9 -2 -11 -2 -16 -1 -2 1 -4 1 -8
0 -7 -2 -19 -2 -20 0 -1 2 0 12 1 14 1 0 12 1 28 1 24 0 26 1 27 2 1 2 1 2 0
4 -1 1 -3 2 -27 2 -15 0 -27 0 -28 0 -1 0 -1 2 -1 8 1 4 1 9 1 11 0 4 0 19 0
24 0 2 0 7 -1 10 -1 4 -1 8 0 8 0 1 12 1 27 1 19 1 26 1 28 2 4 2 5 4 2 6 -1
0 -14 0 -29 0 -14 1 -27 1 -28 1 -1 1 -1 12 0 14 0 1 8 1 28 1 16 1 29 1 29 1
0 1 1 1 3 0 1 0 19 0 40 0z m-13 -118 c1 -1 5 -2 8 -2 3 -1 7 -1 9 -2 2 0 5
-1 6 -2 1 -2 5 -3 7 -1 0 1 3 1 7 2 3 0 7 1 8 2 2 1 2 1 7 -1 l4 -2 0 -7 c0
-4 1 -8 1 -10 0 -10 1 -71 1 -75 -1 -3 -2 -5 -3 -5 -2 -1 -138 -2 -138 -1 -1
0 -1 3 -1 5 -1 8 -2 8 28 8 15 0 26 0 28 1 l3 1 -3 2 c-3 3 -4 3 -28 3 -15 1
-27 1 -27 2 -1 0 -1 3 -1 6 0 6 0 6 4 8 4 3 6 4 10 1 2 -1 7 -1 36 -2 19 0 37
0 40 -1 4 0 5 0 7 2 3 3 2 6 -1 7 -2 1 -15 1 -29 1 -63 -1 -64 -1 -65 0 -3 2
-3 10 0 14 1 3 1 4 0 6 -2 3 -3 11 -1 14 1 2 2 2 26 2 14 0 27 0 30 1 4 1 5 3
1 5 -3 1 -9 2 -29 2 -14 0 -26 0 -27 0 -1 1 -1 3 -1 7 l1 5 13 1 c7 0 24 0 36
0 21 1 22 1 25 3 3 2 5 2 8 0z m57 -115 c1 -2 0 -112 -1 -113 -1 -1 -26 -1
-70 -1 -79 0 -71 -2 -71 10 0 4 0 8 1 9 1 1 6 1 27 1 21 0 27 0 28 1 2 2 2 2
0 4 -2 1 -4 2 -27 2 -30 0 -30 -1 -29 8 1 3 2 7 2 9 1 2 1 3 0 6 -2 3 -2 16 0
17 1 0 4 1 7 1 3 1 6 1 7 2 2 0 2 0 0 2 -1 0 -3 1 -6 1 -8 0 -9 1 -9 9 -1 5
-1 8 0 9 1 1 8 1 33 1 34 1 37 1 31 5 -2 1 -5 2 -32 2 -17 0 -31 1 -32 1 -1 1
-1 4 -1 8 0 4 1 7 1 8 1 1 14 1 71 1 61 -1 69 -1 70 -3z m-2 -124 c1 -2 1 -3
1 -7 -1 -3 -1 -12 0 -23 1 -32 0 -61 -1 -77 0 -1 -107 0 -116 0 -3 1 -9 0 -12
0 -9 -2 -10 -1 -10 7 0 5 0 5 3 7 2 0 6 1 9 0 3 0 8 0 12 0 4 1 12 1 18 1 12
1 14 1 12 5 -2 1 -3 1 -27 1 -16 0 -26 0 -26 1 -2 1 -2 40 -1 41 1 0 1 4 -1 6
-1 3 -2 13 0 15 1 2 23 2 31 1 3 -1 6 -1 8 0 2 0 5 1 8 0 5 -1 8 0 8 3 2 5 1
5 -27 5 -18 0 -26 1 -27 2 -2 1 -3 11 -1 13 1 1 9 1 70 1 64 0 68 -1 69 -2z
m-79 -118 c8 0 28 0 55 0 l25 0 0 -24 c1 -14 1 -37 0 -53 0 -26 0 -28 -2 -29
-1 -1 -12 -1 -27 -1 -14 1 -27 1 -28 1 -9 -1 -79 0 -82 0 -2 1 -2 1 -2 7 0 3
1 5 2 6 0 1 9 1 19 1 27 0 33 1 34 3 1 5 -1 5 -27 5 -14 0 -25 1 -26 1 -2 1
-3 12 -1 17 1 3 1 4 0 5 -1 2 -1 14 0 16 1 1 25 1 83 0 3 0 8 0 10 1 4 0 5 1
5 3 0 4 -3 5 -20 4 -8 0 -22 0 -31 0 -9 -1 -17 -1 -18 -1 0 -1 -7 0 -15 0
l-14 2 -1 4 c0 3 0 5 1 7 2 1 3 2 26 2 26 0 28 0 28 5 0 3 -3 3 -28 3 -17 0
-24 0 -25 1 -1 1 -1 7 0 11 1 4 3 4 29 3 13 0 27 0 30 0z m21 -117 c5 -1 6 -1
8 0 2 1 7 2 26 2 12 0 23 -1 24 -1 1 -1 1 -7 1 -24 0 -12 0 -36 0 -52 1 -22 1
-31 0 -32 -2 -2 -10 -1 -18 1 -5 1 -7 1 -9 1 -3 -2 -83 -2 -101 -1 -12 1 -13
1 -13 7 0 8 2 9 27 9 11 0 22 0 23 0 2 0 3 0 3 2 0 2 0 3 -1 3 -1 1 -12 1 -26
1 -19 1 -24 1 -25 2 -1 1 -1 4 0 8 0 3 0 7 0 10 0 7 0 18 0 23 0 2 0 6 0 9 -1
9 -2 8 23 9 27 0 27 0 28 2 2 5 0 5 -26 6 l-24 1 -1 3 c-1 2 -1 5 -1 7 l1 5 5
0 c2 0 19 1 37 1 26 0 34 0 39 -2z m20 -116 c14 -1 17 -1 27 0 13 2 13 2 12
-12 0 -6 0 -16 0 -22 -1 -13 -1 -26 -1 -37 1 -4 0 -10 0 -13 -1 -7 -1 -7 0
-17 1 -7 1 -9 0 -10 -1 0 -25 -1 -69 -1 -57 1 -68 1 -69 2 -2 1 -2 2 -1 7 0 3
1 6 1 6 1 1 12 1 25 1 25 -1 30 0 30 4 0 1 -1 2 -3 3 -1 1 -13 1 -27 1 -20 0
-25 0 -26 1 -1 1 -1 4 -1 9 1 3 1 8 1 11 0 6 0 19 0 25 0 2 0 7 0 10 0 3 0 6
1 6 0 1 11 1 24 1 13 0 24 0 26 1 3 0 3 2 1 5 -2 2 -2 2 -25 3 -12 0 -23 0
-25 1 -2 0 -2 1 -2 8 l0 8 45 0 c25 0 50 -1 56 -1z m6 -120 c17 0 31 0 32 -1
1 -1 1 -4 1 -12 0 -6 0 -29 0 -52 0 -30 0 -41 -1 -42 -1 -2 -12 -2 -70 -2 -38
1 -69 1 -70 1 -2 1 -1 11 1 13 1 1 4 1 12 0 6 0 17 0 25 0 13 -1 16 0 16 4 0
4 -4 5 -21 6 -8 0 -17 0 -18 0 -2 0 -6 0 -9 0 -5 0 -5 0 -6 3 -1 2 -1 11 -1
20 1 9 1 21 1 28 0 9 0 11 1 11 1 1 13 1 26 0 14 0 25 0 27 1 2 1 3 6 0 6 -4
2 -28 3 -36 3 -6 -1 -12 -1 -13 0 -3 1 -4 1 -4 6 -1 4 -1 5 0 6 1 1 13 1 39 1
20 0 50 0 68 0z m-59 -118 c7 0 20 0 30 0 39 1 59 0 60 -1 2 -1 3 -72 2 -95
l0 -12 -39 0 c-21 0 -44 0 -51 0 -25 -1 -50 0 -51 1 -1 1 -1 4 -1 6 0 4 0 5 2
6 2 1 16 1 35 0 14 -1 15 -1 16 1 2 3 3 6 1 7 -1 0 -9 0 -18 1 -10 0 -22 0
-26 1 l-9 1 0 7 c0 4 0 9 0 11 0 3 0 14 0 22 0 2 0 8 -1 12 0 6 0 8 1 9 1 1
12 1 25 0 25 0 27 0 27 4 0 4 -2 4 -28 4 l-24 1 -1 8 0 8 19 0 c10 -1 24 -1
31 -2z m33 -117 c34 0 56 -1 57 -1 2 -1 2 -3 2 -38 0 -21 0 -42 0 -47 0 -19 0
-22 -2 -23 -1 -1 -2 -2 -4 -1 -1 0 -32 1 -69 1 l-66 1 -1 6 c0 3 0 7 1 7 0 1
12 1 26 2 25 0 28 1 28 4 0 3 -4 3 -28 4 -14 0 -25 0 -26 1 -1 0 -1 2 -1 8 1
5 1 10 1 13 0 4 0 15 0 21 0 2 0 6 -1 8 0 3 0 6 0 7 l1 3 20 0 c11 -1 21 -1
23 -2 4 0 5 0 7 3 3 3 4 6 1 6 -1 1 -13 1 -26 1 -15 0 -24 1 -25 1 -1 1 -2 14
-1 15 1 0 7 0 14 0 7 0 38 0 69 0z m59 -119 c0 0 0 -24 0 -54 0 -48 0 -53 -2
-53 -5 -2 -30 0 -41 2 -4 1 -6 1 -11 0 -4 -2 -8 -2 -12 -2 -4 1 -21 1 -40 1
-25 0 -33 0 -35 1 -1 1 -1 3 -1 7 0 4 0 6 0 7 1 0 13 0 27 0 27 1 29 1 28 5
-1 1 -2 2 -27 2 -17 0 -26 1 -27 2 -1 0 -1 3 -1 8 1 10 1 11 0 18 0 5 0 9 1
11 1 3 1 4 0 7 -2 5 -2 14 0 15 1 1 11 1 26 1 22 -1 24 -1 26 1 3 3 2 5 0 6
-1 0 -13 0 -27 0 -14 1 -25 1 -26 1 0 1 0 14 1 15 0 1 140 0 141 -1z m-63
-117 c4 -1 30 -1 49 1 6 0 11 0 12 0 2 -1 2 -3 2 -23 -1 -12 -1 -22 -1 -23 0
-2 0 -16 0 -33 l1 -31 -46 0 c-25 0 -57 0 -70 0 l-24 1 0 7 0 8 27 0 c14 0 27
1 27 1 1 0 0 3 -2 4 -2 2 -5 2 -23 3 -12 0 -23 0 -26 1 l-4 0 0 13 c0 8 0 21
0 31 l0 17 4 0 c2 1 15 1 27 1 20 0 23 0 24 2 0 0 0 2 -1 3 -2 1 -5 2 -27 2
-14 0 -26 1 -27 1 -1 1 -2 14 0 15 1 1 72 0 78 -1z"/>
<path d="M1962 4150 c-3 -1 -5 -2 -7 -5 -4 -6 -4 -10 1 -12 l3 -2 5 2 c5 3 7
3 7 -2 0 -2 -1 -4 -6 -8 -7 -6 -12 -14 -12 -20 -1 -8 0 -8 19 -8 13 0 16 0 17
2 2 1 3 1 8 0 20 -4 21 -4 23 -2 1 1 2 3 2 5 0 4 -3 6 -10 7 -4 0 -6 1 -6 2 0
2 3 7 6 9 6 4 9 14 7 20 -2 5 -6 8 -13 10 -5 1 -6 1 -9 0 -5 -2 -6 -5 -6 -9 1
-3 3 -4 8 -4 5 0 5 0 5 -3 0 -2 -1 -4 -4 -6 -5 -4 -9 -14 -9 -21 0 -3 -1 -4
-4 -2 -1 1 -4 2 -8 2 -7 0 -7 0 -7 3 0 2 1 4 4 6 5 5 9 12 10 19 0 6 -3 10
-11 15 -6 3 -7 3 -13 2z"/>
<path d="M2037 4148 c-9 -3 -14 -14 -14 -28 0 -9 0 -10 3 -15 2 -4 4 -6 8 -9
7 -4 10 -4 17 -1 6 3 7 5 10 12 4 7 4 15 1 26 -1 7 -2 7 -6 10 -4 3 -12 6 -15
6 -1 0 -3 -1 -4 -1z m9 -12 c8 -5 7 -28 -2 -31 -1 -1 -3 -1 -4 0 -2 1 -4 10
-4 17 0 7 1 10 4 13 2 2 2 2 6 1z"/>
<path d="M1963 4027 c-5 -1 -7 -3 -6 -8 1 -5 2 -6 7 -6 3 0 4 0 4 -2 1 -3 0
-5 -5 -9 -2 -2 -4 -5 -4 -6 0 -1 -1 -3 -1 -5 -3 -5 -2 -11 0 -14 2 -2 3 -2 15
-3 12 0 13 0 15 2 3 2 4 7 2 8 0 1 -4 2 -8 3 -4 0 -8 1 -8 1 -1 2 2 7 5 11 6
5 7 8 7 14 0 5 -3 11 -7 13 -4 1 -11 2 -16 1z"/>
<path d="M2030 4025 c-5 -3 -10 -10 -11 -16 -1 -7 2 -20 6 -29 2 -4 7 -6 15
-6 7 0 8 0 12 3 5 4 5 4 7 12 2 9 1 21 -2 27 -1 3 -2 5 -7 8 -8 4 -14 4 -20 1z
m11 -11 c3 -1 5 -6 5 -13 0 -7 0 -8 -2 -12 -3 -4 -4 -5 -7 -3 -6 5 -7 23 -1
27 3 2 3 2 5 1z"/>
<path d="M2000 4025 c-3 -2 -3 -4 -2 -15 1 -6 1 -14 1 -22 l-1 -13 3 -2 c4 -4
8 -2 10 5 1 4 2 45 0 46 -1 1 -8 2 -11 1z"/>
<path d="M1964 3905 c-8 -2 -13 -8 -10 -13 3 -4 6 -4 11 -3 2 1 5 2 5 1 2 0
-1 -5 -6 -10 -4 -6 -9 -16 -8 -20 1 -2 3 -4 4 -6 4 -3 4 -3 13 -2 8 0 10 1 13
3 5 3 6 5 4 7 -1 2 -3 2 -9 3 -4 0 -7 1 -8 2 0 0 2 3 4 5 7 9 8 12 9 16 1 11
-10 19 -22 17z"/>
<path d="M2041 3905 c-4 -2 -5 -3 -9 -13 -2 -4 -2 -7 -2 -14 0 -7 0 -9 2 -14
4 -7 7 -10 14 -11 6 -2 9 -1 15 5 3 3 4 4 5 11 2 9 1 14 -2 23 -4 8 -7 12 -12
13 -2 0 -4 0 -5 0 -2 1 -4 0 -6 0z m10 -15 c2 -3 2 -5 2 -13 0 -8 -1 -9 -3
-11 -1 -1 -2 -2 -3 -2 -1 1 -2 10 -3 20 -1 4 -1 6 1 7 2 3 4 2 6 -1z"/>
<path d="M2002 3904 c-6 -2 -10 -13 -10 -25 0 -10 2 -16 7 -22 3 -4 3 -4 9 -4
8 0 12 2 16 10 3 4 3 6 3 12 0 14 -3 22 -10 27 -3 2 -5 3 -9 3 -2 0 -5 0 -6
-1z m9 -16 c2 -3 2 -5 2 -12 -1 -13 -4 -16 -8 -10 -2 2 -2 4 -2 12 0 9 0 11 2
13 3 3 4 2 6 -3z"/>
<path d="M1992 3793 c-6 -3 -9 -5 -12 -11 -2 -5 -2 -8 -1 -13 2 -6 9 -13 14
-14 2 -1 4 -2 4 -2 0 -1 -2 -3 -4 -4 -7 -5 -6 -11 1 -13 5 -1 8 0 14 8 10 12
12 21 10 31 -3 10 -5 13 -11 16 -7 3 -11 3 -15 2z m11 -14 c1 -1 2 -5 3 -7 0
-4 0 -4 -2 -5 -6 -3 -11 1 -9 8 1 7 6 9 8 4z"/>
<path d="M2039 3792 c-12 -5 -18 -20 -14 -37 1 -4 3 -9 4 -11 4 -4 10 -8 16
-8 6 0 13 6 17 14 3 7 3 7 3 17 -1 14 -4 19 -13 24 -5 2 -8 2 -13 1z m9 -14
c1 -2 2 -6 3 -14 0 -13 0 -15 -6 -15 -3 0 -4 1 -6 5 -1 3 -2 6 -2 12 0 8 0 8
3 11 3 4 6 4 8 1z"/>
<path d="M1959 3789 c-3 -2 -4 -8 -3 -18 1 -5 1 -12 0 -16 0 -7 0 -8 1 -11 5
-6 12 -4 12 3 0 2 0 5 1 8 1 7 0 30 -2 34 -2 2 -6 3 -9 0z"/>
<path d="M1992 3674 c-2 -1 -4 -4 -6 -7 -4 -5 -4 -10 -1 -15 2 -4 2 -4 1 -8
-3 -8 -3 -11 -1 -17 2 -5 2 -6 7 -8 3 -1 8 -2 11 -3 6 0 7 0 11 4 3 2 6 6 7
10 2 3 3 5 3 5 1 0 3 -3 5 -7 5 -6 10 -10 15 -11 3 -1 13 2 14 4 6 12 8 28 6
36 -2 5 -6 11 -10 14 -4 2 -5 3 -9 3 -3 0 -7 -1 -10 -2 -4 -2 -4 -2 -7 -10 -2
-5 -3 -10 -3 -15 -1 -5 -1 -8 -1 -9 -1 0 -2 1 -3 2 -2 2 -2 3 -2 9 1 3 1 8 0
11 0 5 -1 6 -5 11 l-6 5 -7 0 c-5 0 -7 0 -9 -2z m15 -11 c2 -3 2 -3 1 -6 -1
-2 -5 -4 -8 -3 -5 1 -5 8 0 10 4 1 4 1 7 -1z m40 -1 c0 0 2 -3 3 -6 2 -5 2 -7
1 -13 -1 -8 -3 -12 -6 -12 -3 0 -5 4 -6 12 -1 7 -1 8 1 12 1 2 2 5 2 6 1 2 3
2 5 1z m-39 -27 c1 -3 1 -3 -1 -5 -3 -2 -8 -2 -10 1 -1 2 -1 3 1 5 2 2 3 2 6
2 3 0 4 -1 4 -3z"/>
<path d="M1962 3669 c-4 -2 -5 -6 -5 -28 0 -21 0 -21 6 -22 3 0 4 0 7 2 2 3 2
3 2 13 -1 5 -1 15 -1 21 0 11 0 12 -2 14 -2 2 -4 2 -7 0z"/>
<path d="M2036 3556 c-4 -2 -10 -9 -13 -16 -4 -10 -2 -23 4 -32 4 -6 6 -7 16
-7 7 0 8 0 12 2 5 4 8 9 10 18 2 13 1 19 -5 27 -6 8 -15 11 -24 8z m12 -15 c1
-1 2 -6 2 -13 0 -9 0 -10 -2 -12 -4 -5 -10 -3 -10 5 0 1 -1 3 -1 5 -3 3 -2 15
2 18 3 2 7 1 9 -3z"/>
<path d="M1986 3553 c-1 -1 -2 -2 -2 -5 0 -6 2 -7 7 -7 5 1 8 0 8 -2 0 -1 -1
-5 -2 -8 -3 -8 -7 -21 -7 -24 0 -3 2 -4 7 -4 6 0 8 2 9 10 0 3 2 11 4 17 5 16
6 20 3 22 -3 1 -25 2 -27 1z"/>
<path d="M1961 3552 c-1 0 -1 -7 0 -14 0 -7 1 -17 1 -21 -1 -5 0 -10 0 -11 1
-2 7 -4 10 -2 3 1 3 1 2 22 0 12 0 22 0 23 0 2 -3 4 -8 4 -3 0 -5 0 -5 -1z"/>
<path d="M2003 3440 c-7 -3 -14 -10 -16 -17 -3 -8 -3 -17 1 -27 3 -7 4 -9 7
-11 4 -2 5 -2 11 -2 12 0 17 4 19 14 2 6 3 6 6 -2 2 -7 10 -14 17 -14 6 0 9 1
13 6 5 5 7 11 7 22 0 15 -4 25 -13 29 -4 2 -5 2 -10 1 -3 -1 -7 -2 -8 -3 -4
-3 -9 -12 -9 -17 0 -1 -1 -4 -1 -6 l-1 -3 -3 3 c-2 2 -4 4 -4 4 -1 0 -3 1 -4
2 -3 2 -4 2 -7 2 -3 -1 -5 -1 -6 -2 -2 0 -3 2 -1 6 1 2 4 4 8 5 3 2 6 4 6 4 1
4 -2 8 -5 8 -2 0 -5 -1 -7 -2z m49 -16 c4 -8 3 -26 -1 -27 -4 -2 -10 0 -10 3
-1 10 -1 19 0 21 0 3 4 6 8 6 1 0 2 -1 3 -3z m-42 -17 c1 -3 1 -10 0 -12 -3
-3 -9 1 -11 6 -1 6 8 11 11 6z"/>
<path d="M1965 3436 c-2 -1 -3 -2 -3 -2 -1 -2 -1 -38 0 -44 2 -7 2 -8 8 -8 2
0 4 1 5 1 2 3 2 9 1 20 -1 6 -1 15 -1 21 -1 6 -1 11 -2 11 -1 2 -6 2 -8 1z"/>
<path d="M2046 3320 c-3 -1 -6 -1 -7 -2 -4 0 -9 -6 -11 -12 -3 -10 -2 -27 3
-37 3 -5 9 -7 18 -7 7 0 8 0 11 3 1 2 4 6 5 8 2 4 2 6 2 17 0 16 -2 22 -10 27
-3 2 -6 4 -6 4 -1 0 -3 -1 -5 -1z m4 -14 c3 -2 3 -3 3 -12 1 -13 -1 -18 -7
-19 -3 -1 -5 1 -6 8 0 8 1 22 4 24 2 1 3 1 6 -1z"/>
<path d="M1990 3319 c-4 -2 -5 -7 -3 -19 2 -8 4 -11 11 -11 6 0 8 -2 8 -9 0
-4 0 -5 -2 -6 -2 0 -5 1 -8 2 -7 2 -9 3 -9 0 -2 -5 1 -10 8 -13 7 -1 10 -1 15
1 9 3 12 8 11 18 -1 9 -8 17 -17 17 -2 0 -4 4 -2 7 1 2 2 2 9 2 7 0 8 0 9 2 2
4 0 7 -4 8 -5 2 -23 2 -26 1z"/>
<path d="M1963 3316 c-4 -2 -5 -4 -3 -8 2 -3 2 -7 2 -22 0 -16 0 -18 2 -19 2
-1 9 0 11 1 0 1 1 7 1 15 0 7 0 16 0 20 1 8 1 11 -4 13 -4 1 -4 1 -9 0z"/>
<path d="M2003 3201 c-3 -3 -6 -6 -7 -8 -1 -1 -4 -6 -8 -11 -7 -10 -8 -13 -4
-18 4 -6 6 -7 14 -7 7 1 8 1 9 -4 1 -5 6 -9 9 -9 4 0 4 1 4 7 0 4 1 5 4 6 l3
2 5 -7 c4 -6 6 -7 10 -8 4 -2 5 -2 11 -1 10 3 16 12 16 28 0 25 -9 36 -26 32
-7 -1 -13 -12 -15 -26 -1 -11 -2 -12 -4 -8 -1 1 -2 3 -3 3 -1 1 -1 4 -1 7 0 3
0 10 -1 15 0 10 -1 10 -7 11 -4 1 -4 1 -9 -4z m48 -13 c4 -4 6 -10 4 -15 0 -1
-1 -5 0 -7 0 -3 0 -4 -2 -6 -4 -4 -8 -4 -9 0 -2 4 -3 22 -2 25 2 6 5 6 9 3z
m-44 -10 c0 -3 0 -6 -1 -6 -1 -1 -7 -2 -9 -1 -2 0 -1 2 3 8 4 7 6 7 7 -1z"/>
<path d="M1964 3201 c-1 -1 -1 -43 0 -48 1 -6 3 -7 8 -5 6 2 6 3 6 16 -1 6 -1
17 -1 23 -1 7 -1 13 -2 13 -1 2 -11 2 -11 1z"/>
<path d="M2038 3087 c-6 -3 -8 -6 -10 -14 -1 -6 -2 -9 -1 -18 1 -11 1 -12 3
-15 2 -2 3 -4 3 -5 2 -5 13 -8 21 -7 4 0 6 1 9 5 3 4 5 7 6 13 1 4 2 9 2 11
-1 2 -1 7 -2 11 -1 6 -1 7 -5 12 -6 7 -9 8 -17 9 -5 0 -7 0 -9 -2z m14 -16 c2
-2 2 -2 2 -13 -1 -12 -1 -14 -4 -17 -5 -7 -11 6 -9 21 1 12 5 15 11 9z"/>
<path d="M1999 3087 c-6 0 -8 -2 -8 -8 0 -5 3 -7 8 -6 4 0 4 -2 -1 -5 -3 -1
-4 -2 -4 -6 0 -6 1 -8 5 -8 6 0 10 -8 7 -11 -2 -1 -8 0 -9 1 0 1 -4 1 -6 0 -3
-3 0 -11 4 -14 3 -3 13 -3 15 0 1 0 2 1 2 1 3 0 6 5 7 12 1 6 1 7 -1 12 -3 6
-3 6 -1 9 0 2 1 4 1 6 0 11 -8 18 -19 17z"/>
<path d="M1966 3084 c-2 -2 -2 -2 -2 -26 0 -26 0 -27 6 -25 2 1 3 1 4 1 0 -1
2 -1 2 0 2 0 2 3 2 24 -1 22 -1 25 -3 26 -1 0 -2 1 -3 1 0 0 -1 0 -2 1 -1 0
-3 -1 -4 -2z"/>
<path d="M2048 2972 c-5 -1 -8 -3 -11 -7 -4 -6 -5 -12 -5 -25 -1 -14 -1 -14
-12 -14 -8 0 -9 1 -9 3 0 1 1 4 4 7 6 6 6 7 6 18 0 7 0 7 -2 9 -2 2 -5 4 -8 5
-4 1 -5 1 -9 0 -7 -2 -9 -4 -10 -9 0 -4 0 -6 2 -8 3 -3 4 -3 7 1 3 2 3 2 5 1
3 -2 1 -6 -6 -14 -7 -7 -9 -11 -9 -18 0 -6 2 -7 11 -8 4 -1 11 -1 15 -1 9 0
11 1 12 8 0 6 3 7 7 0 4 -5 7 -7 15 -9 6 -2 9 -1 16 6 5 4 7 8 8 15 1 8 -3 25
-8 33 -4 5 -12 8 -19 7z m9 -19 c2 -2 2 -4 2 -9 0 -8 -3 -20 -5 -21 -2 -2 -6
1 -7 6 -1 4 -1 20 1 24 1 4 6 4 9 0z"/>
<path d="M1967 2963 c-2 0 -3 -2 -4 -3 0 -1 0 -9 1 -17 0 -9 1 -16 0 -17 -1
-3 1 -9 4 -12 1 -1 3 -2 6 -2 7 0 7 0 6 24 0 12 -1 23 -1 24 -2 5 -7 6 -12 3z"/>
<path d="M2043 2853 c-5 -1 -11 -6 -12 -10 -3 -10 -3 -17 -2 -29 2 -9 2 -12 5
-15 4 -6 12 -10 19 -10 5 0 6 1 9 6 4 5 8 13 10 20 1 4 0 20 -2 24 -3 7 -8 12
-14 14 -7 2 -7 2 -13 0z m11 -15 c3 -3 4 -12 4 -21 -1 -11 -2 -12 -7 -12 -7 0
-7 2 -7 18 0 11 0 13 1 15 3 2 7 3 9 0z"/>
<path d="M2003 2848 c-1 -1 -3 -3 -4 -5 -2 -4 -2 -5 -1 -16 0 -6 1 -16 1 -21
0 -10 1 -11 8 -11 7 0 7 0 8 25 0 12 0 23 -1 24 0 1 -1 3 -4 4 -4 1 -4 1 -7 0z"/>
<path d="M1965 2846 c0 -1 0 -5 1 -10 1 -6 1 -14 1 -25 l0 -16 2 -2 c2 -1 3
-1 7 0 5 1 6 4 5 11 -1 6 -1 23 0 27 0 3 1 6 0 9 0 4 -1 4 -5 6 -5 2 -10 3
-11 0z"/>
<path d="M2053 2730 c-7 -3 -12 -12 -14 -24 -2 -7 -2 -8 1 -17 1 -5 3 -11 3
-12 2 -4 11 -11 16 -12 9 -2 17 9 22 30 1 6 1 7 -1 14 -4 18 -14 27 -27 21z
m10 -15 c1 -1 3 -5 4 -9 1 -6 1 -7 0 -14 -2 -8 -4 -10 -8 -10 -4 0 -7 3 -7 9
-1 14 1 22 3 26 2 2 6 1 8 -2z"/>
<path d="M2003 2728 c-11 -5 -15 -15 -14 -32 1 -12 2 -14 6 -21 9 -11 19 -12
30 -3 2 2 8 16 9 24 1 5 1 7 -1 13 -3 9 -5 13 -9 16 -2 1 -4 3 -5 3 -4 3 -11
3 -16 0z m14 -17 c3 -4 3 -21 1 -26 -2 -3 -6 -5 -10 -3 -4 1 -5 4 -5 17 0 8 1
11 2 13 4 6 9 5 12 -1z"/>
<path d="M1967 2725 c-2 -2 -3 -5 -2 -31 0 -19 0 -19 2 -21 2 -2 3 -3 7 -2 2
0 4 1 5 1 0 1 0 5 0 9 0 5 0 17 0 26 -1 20 -1 20 -7 20 -2 0 -4 -1 -5 -2z"/>
<path d="M2037 2618 c-6 -3 -11 -10 -13 -21 -2 -8 -2 -8 -1 -15 4 -15 8 -21
17 -23 8 -3 16 0 20 7 1 2 2 5 4 7 3 5 4 20 2 28 -1 4 -2 7 -3 7 -1 0 -3 2 -5
4 -4 4 -10 8 -13 8 -2 0 -5 -1 -8 -2z m12 -15 c4 -3 6 -11 5 -15 -1 -1 -1 -3
-1 -5 0 -1 -1 -4 -3 -6 -2 -4 -3 -4 -6 -4 -6 0 -8 2 -8 10 0 13 4 23 8 23 1 0
3 -1 5 -3z"/>
<path d="M1990 2618 c-4 -1 -13 -8 -15 -12 -1 -2 -1 -5 -1 -11 0 -8 1 -9 3
-12 2 -3 4 -4 7 -5 2 -1 4 -1 5 -2 0 -1 3 -1 7 -1 3 0 6 0 6 -1 0 -1 -10 -10
-15 -12 -3 -2 -3 -3 -3 -5 0 -5 7 -8 14 -5 4 2 11 9 11 12 0 2 1 4 3 6 4 7 5
12 5 22 0 11 -1 15 -8 22 -3 3 -4 4 -10 4 -4 1 -7 1 -9 0z m13 -16 c3 -3 3 -6
-2 -10 -4 -4 -7 -4 -9 0 -3 5 -3 8 0 11 4 3 8 3 11 -1z"/>
<path d="M1991 2497 c-6 -1 -9 -4 -12 -7 -3 -6 -3 -11 0 -18 l2 -4 -3 -6 c-2
-4 -2 -6 -2 -11 1 -8 4 -14 9 -16 4 -2 21 -2 25 0 4 1 6 6 7 15 1 6 1 8 -1 14
-1 5 -1 7 0 8 2 2 1 9 -1 15 -4 7 -9 10 -17 11 -3 0 -6 0 -7 -1z m12 -14 c2
-6 -3 -13 -7 -9 -3 2 -3 7 0 10 3 3 5 2 7 -1z m0 -27 c1 -2 1 -4 1 -5 -2 -5
-10 -5 -12 1 -2 4 0 6 3 6 5 1 6 1 8 -2z"/>
<path d="M2041 2495 c-1 0 -4 -1 -5 -1 -5 0 -9 -5 -13 -16 -2 -5 -2 -17 1 -26
2 -8 8 -15 14 -17 6 -2 14 -1 17 1 1 2 4 3 5 4 4 3 5 8 5 22 0 9 0 13 -1 17
-4 12 -5 13 -16 16 -4 2 -5 2 -7 0z m6 -15 c4 -2 5 -7 5 -16 0 -8 0 -9 -3 -12
-4 -6 -7 -6 -10 -2 -1 2 -2 5 -2 7 0 1 0 4 -1 6 -1 3 -1 5 0 8 0 2 1 5 1 6 1
5 6 6 10 3z"/>
<path d="M1981 2373 c-3 -1 -6 -7 -4 -11 l1 -2 9 0 c9 0 13 0 13 -2 0 -1 -4
-9 -8 -18 -5 -9 -8 -18 -9 -20 0 -4 0 -4 3 -5 5 -2 8 -2 10 -1 2 3 8 15 12 27
3 7 6 14 8 16 2 3 2 5 2 8 -1 7 -1 7 -26 8 -5 1 -10 0 -11 0z"/>
<path d="M2039 2373 c-4 -1 -6 -2 -12 -7 -8 -6 -8 -6 -7 -9 1 -2 1 -5 0 -9 -1
-6 -1 -11 3 -20 2 -7 7 -12 15 -15 5 -2 8 -3 13 0 9 4 15 22 13 37 -1 4 -2 9
-3 11 -1 1 -3 4 -4 6 -2 6 -7 8 -18 6z m10 -20 c1 -1 2 -3 2 -5 1 -14 -3 -21
-12 -21 -3 0 -4 2 -4 11 -1 8 0 14 3 16 2 2 9 1 11 -1z"/>
<path d="M1993 2263 c-3 -1 -10 -12 -13 -19 -5 -14 -5 -22 -1 -32 4 -8 7 -10
13 -12 7 -3 10 -2 16 1 6 3 6 3 9 11 3 9 2 18 -1 21 -2 3 -11 7 -16 7 -3 0 -4
0 -4 1 0 2 7 8 9 8 2 0 5 3 5 5 0 2 -3 7 -6 8 -3 2 -7 2 -11 1z m11 -39 c2 -2
2 -6 -1 -7 -4 -2 -10 3 -10 7 0 3 9 3 11 0z"/>
<path d="M2037 2260 c-3 -2 -6 -4 -7 -5 -2 -2 -8 -16 -8 -21 -1 -4 1 -13 3
-16 0 -1 1 -3 1 -4 0 -1 1 -3 2 -6 2 -3 3 -4 7 -6 6 -3 10 -3 14 -2 10 3 15
11 17 27 1 11 1 15 -1 21 -3 5 -9 11 -14 12 -8 2 -9 2 -14 0z m12 -16 c4 -4 5
-8 5 -14 -1 -5 -4 -12 -6 -14 -3 -2 -8 -1 -11 3 -4 6 -3 20 2 26 2 2 8 1 10
-1z"/>
<path d="M1983 2146 c-1 -1 -3 -1 -4 -1 -4 0 -5 -3 -5 -11 2 -13 2 -14 6 -18
3 -3 4 -4 7 -4 4 0 6 -2 7 -7 1 -2 1 -3 -1 -6 -2 -1 -4 -2 -5 -2 -5 2 -11 2
-12 1 -2 -1 -2 -6 -1 -9 2 -3 9 -6 15 -6 9 0 13 3 19 14 2 6 3 10 1 14 -3 6
-7 10 -12 11 -3 1 -5 2 -5 4 0 4 2 5 10 5 6 0 7 1 8 6 1 6 0 7 -6 7 -3 0 -7 1
-8 2 -3 1 -12 1 -14 0z"/>
<path d="M2035 2144 c-12 -2 -17 -8 -19 -25 0 -10 2 -19 6 -26 4 -6 12 -12 16
-12 12 3 14 5 19 15 5 9 6 14 4 25 -1 7 -2 9 -5 14 -2 3 -5 6 -6 6 -1 2 -10 4
-12 4 0 0 -2 0 -3 -1z m6 -15 c4 -3 6 -27 2 -30 -7 -5 -12 0 -13 13 0 10 1 15
5 17 3 2 3 2 6 0z"/>
<path d="M2001 2031 c-4 -2 -10 -7 -13 -12 -4 -8 -6 -12 -11 -17 -4 -5 -4 -5
-4 -13 0 -6 0 -8 2 -9 1 0 2 -1 3 0 3 1 13 1 17 0 3 0 3 -1 6 -7 1 -3 2 -6 2
-7 0 -2 3 -2 6 -1 3 1 6 8 6 13 0 2 3 5 6 5 1 0 3 -2 4 -3 1 -2 5 -6 8 -8 5
-5 5 -5 12 -5 9 0 11 1 17 11 l4 7 0 14 0 14 -3 4 c-7 10 -18 14 -26 10 -6 -3
-12 -8 -12 -12 -1 -2 -1 -7 -2 -10 -1 -10 -1 -11 -5 -10 -2 1 -4 2 -4 4 -1 1
-1 8 -1 16 0 10 0 13 -1 14 -2 2 -8 3 -11 2z m48 -21 c1 -4 2 -19 0 -25 -1 -5
-8 -6 -9 -2 -1 1 -1 5 -2 8 -2 15 5 29 11 19z m-50 -8 c0 -4 -2 -7 -6 -7 -3 0
-4 1 -2 6 2 3 2 4 5 4 3 0 3 0 3 -3z"/>
<path d="M1986 1908 c-4 -1 -12 -10 -12 -13 0 -2 7 -9 9 -9 1 0 2 1 4 2 3 3 7
3 7 0 0 -2 -2 -4 -6 -5 -2 0 -3 -1 -2 -2 0 -1 0 -3 1 -5 0 -5 2 -6 6 -7 4 0 6
-2 6 -5 0 -3 -2 -3 -12 -2 -11 1 -12 1 -12 -6 0 -3 1 -4 4 -7 4 -4 5 -5 11 -6
7 -1 7 -1 12 1 7 3 9 4 12 12 4 7 4 11 0 17 -1 4 -2 6 -2 8 3 10 3 10 0 16 -2
4 -3 5 -8 8 -6 3 -15 5 -18 3z"/>
<path d="M2040 1905 c-5 -1 -9 -4 -11 -7 -3 -4 -6 -14 -6 -22 0 -6 3 -18 5
-22 5 -9 16 -14 23 -11 6 3 10 7 11 11 1 3 2 5 2 6 1 1 1 6 1 16 l0 15 -3 4
c-4 6 -11 11 -16 11 -3 0 -5 0 -6 -1z m8 -14 c3 -3 4 -6 4 -15 0 -11 -2 -16
-6 -17 -3 0 -7 2 -9 5 -1 3 -1 13 0 20 1 8 6 11 11 7z"/>
<path d="M2027 1790 c-5 -5 -6 -9 -6 -18 0 -3 -1 -7 -1 -9 -1 -2 -2 -5 -2 -7
0 -2 1 -4 4 -9 0 -2 2 -5 3 -8 4 -7 9 -10 17 -10 4 0 6 0 11 4 5 2 7 4 7 7 1
1 2 5 4 9 2 5 2 6 1 16 -1 14 -5 22 -12 26 -5 3 -7 4 -13 4 l-8 0 -5 -5z m22
-19 c1 -3 1 -5 1 -12 0 -5 0 -10 -1 -11 -1 -3 -5 -4 -8 -3 -5 2 -7 23 -4 29 2
2 5 3 8 2 1 0 2 -2 4 -5z"/>
<path d="M1984 1793 c-2 -1 -6 -3 -7 -5 -5 -3 -5 -7 -1 -11 4 -4 8 -4 11 0 4
4 7 2 7 -3 0 -2 -3 -7 -8 -10 -5 -3 -10 -12 -12 -17 -1 -4 1 -14 3 -15 1 0 8
0 16 0 14 0 16 1 18 2 3 2 3 3 3 6 l0 5 -5 0 c-12 0 -16 1 -17 1 -1 1 3 7 8
11 6 4 10 14 10 21 0 4 0 5 -5 10 -5 5 -5 5 -11 6 -4 0 -8 -1 -10 -1z"/>
<path d="M2021 1671 c-4 -4 -7 -8 -7 -9 -3 -15 -3 -15 -1 -25 3 -11 9 -20 15
-22 5 -1 10 -1 16 1 9 3 16 17 15 29 -1 11 -3 17 -6 22 -3 7 -10 11 -19 11
l-6 0 -7 -7z m20 -14 c5 -6 1 -28 -4 -29 -7 -1 -11 13 -8 24 2 8 8 10 12 5z"/>
<path d="M1987 1669 c-2 -2 -2 -4 -3 -25 0 -27 0 -27 8 -25 8 1 8 0 8 25 0 15
-1 23 -1 24 -2 2 -10 3 -12 1z"/>
<path d="M2015 1561 c-13 -3 -17 -6 -21 -18 -2 -7 -2 -8 -1 -16 1 -11 3 -16 9
-23 4 -5 7 -7 16 -7 6 -1 8 -1 13 1 8 3 11 5 15 15 2 6 3 8 3 14 0 12 -2 18
-8 24 -2 4 -5 6 -5 6 -1 0 -3 1 -6 3 -5 2 -8 2 -15 1z m10 -16 c3 -2 4 -4 7
-13 2 -4 2 -5 0 -11 -2 -7 -4 -9 -10 -10 -4 0 -4 0 -7 3 -2 2 -5 6 -6 9 -1 4
-1 5 0 10 1 4 2 6 5 9 4 4 5 5 11 3z"/>
<path d="M2027 1437 c-3 0 -6 -1 -7 -1 -3 0 -11 -8 -11 -10 0 -1 -1 -5 -2 -8
-2 -7 -2 -8 -1 -15 2 -13 6 -19 16 -24 7 -3 12 -3 20 1 6 3 7 4 10 11 4 9 4
17 1 29 -2 9 -7 16 -10 16 -2 0 -4 1 -5 2 -3 1 -6 1 -11 -1z m9 -19 l5 -4 0
-8 c0 -7 -1 -8 -4 -11 -4 -5 -7 -6 -11 -4 -4 3 -6 7 -6 14 0 8 2 13 6 16 4 3
5 3 10 -3z"/>
<path d="M1980 1431 c-1 -1 -1 -3 0 -5 0 -2 0 -11 0 -21 0 -17 0 -17 2 -20 2
-2 3 -2 7 -2 7 0 7 0 6 5 0 3 0 13 -1 23 0 10 0 19 0 20 -1 2 -13 1 -14 0z"/>
<path d="M1808 4077 c0 -1 -13 -1 -29 -1 -15 -1 -30 -1 -32 -2 -5 0 -5 -2 -1
-5 3 -1 8 -1 37 -1 29 0 34 1 36 2 1 2 1 4 -3 6 -2 1 -7 1 -8 1z"/>
<path d="M1800 4053 c-8 -1 -23 -1 -34 -1 -17 0 -20 0 -22 -1 -2 -2 0 -6 4 -6
2 -1 18 -1 35 -1 30 1 32 1 34 2 3 3 3 6 -1 7 -1 1 -2 1 -3 1 0 0 -6 -1 -13
-1z"/>
<path d="M1783 3958 c-14 -1 -29 -1 -32 -1 l-7 0 0 -3 0 -3 24 -1 c13 0 30 -1
37 -1 13 0 14 1 16 3 4 4 0 7 -8 7 -3 0 -16 -1 -30 -1z"/>
<path d="M1809 3936 c0 -1 -14 -1 -31 -1 -17 -1 -31 -1 -32 -2 -2 0 -3 -4 -1
-5 0 -1 16 -1 35 -2 37 0 39 0 40 5 0 1 -1 2 -2 3 -2 1 -8 2 -9 2z"/>
<path d="M1758 3839 c-14 0 -15 -1 -15 -3 0 -1 1 -2 1 -3 2 -1 74 -2 76 0 2 2
1 5 -1 6 -2 1 -35 1 -61 0z"/>
<path d="M1744 3814 c-1 -1 -1 -2 0 -4 2 -2 4 -2 43 -2 31 0 32 0 34 2 l2 2
-2 2 c-2 2 -4 2 -39 2 -30 0 -36 0 -38 -2z"/>
<path d="M1747 3720 c-5 -1 -6 -2 -3 -5 2 -2 4 -2 13 -2 26 0 61 0 63 1 3 1 3
2 3 4 l0 3 -36 0 c-20 0 -38 -1 -40 -1z"/>
<path d="M1746 3696 c-3 -2 -2 -5 0 -5 1 -1 19 -1 39 -1 39 -1 39 -1 38 4 l0
3 -38 0 c-24 0 -38 0 -39 -1z"/>
<path d="M1761 3604 c-10 0 -12 -1 -12 -2 -1 -5 0 -5 36 -5 33 0 38 0 39 4 0
0 -1 2 -2 2 -1 2 -4 2 -26 2 -13 0 -29 -1 -35 -1z"/>
<path d="M1751 3580 c-1 -1 -1 -2 0 -3 1 -1 5 -2 34 -2 21 -1 33 -1 35 0 3 1
3 5 0 6 -1 1 -14 1 -35 1 -29 0 -33 0 -34 -2z"/>
<path d="M1751 3485 c-3 -3 -2 -5 3 -6 5 -1 70 -1 71 -1 1 1 1 5 0 7 -2 2 -72
2 -74 0z"/>
<path d="M1813 3464 c0 -1 -14 -1 -31 -1 l-29 0 -1 -3 c0 -2 1 -3 1 -4 2 -2
61 -2 66 0 7 2 6 6 -2 7 -2 1 -4 1 -4 1z"/>
<path d="M1759 3365 c-6 0 -8 -1 -8 -2 -1 -2 -1 -2 0 -4 3 -2 54 -2 59 1 5 1
5 3 1 4 -3 2 -9 2 -24 2 -11 0 -24 -1 -28 -1z"/>
<path d="M1756 3341 c-6 -1 -8 -5 -4 -7 3 -1 61 0 65 1 4 2 4 4 -2 5 -5 1 -52
2 -59 1z"/>
<path d="M1800 3249 c-2 0 -12 0 -24 0 -19 0 -22 -1 -24 -2 -1 -2 -1 -2 0 -4
1 -1 3 -2 28 -2 33 0 44 0 45 3 1 1 1 2 0 3 -1 2 -4 2 -13 2 -6 1 -11 1 -12 0z"/>
<path d="M1760 3225 c-5 0 -7 -1 -7 -2 -1 -2 -1 -2 0 -4 2 -1 8 -1 35 -1 34 0
36 0 35 5 l0 3 -29 0 c-16 0 -31 -1 -34 -1z"/>
<path d="M1759 3131 c-4 0 -4 -1 -4 -3 l0 -3 33 -1 c18 0 33 0 35 0 3 1 5 4 4
6 -1 2 -2 2 -33 2 -17 0 -33 -1 -35 -1z"/>
<path d="M1765 3108 c-5 0 -10 -1 -11 -1 -1 -2 -1 -4 1 -5 1 -2 5 -2 33 -2 33
1 37 1 38 5 1 0 0 2 -1 3 -1 1 -4 1 -26 1 -13 0 -29 -1 -34 -1z"/>
<path d="M1754 3012 c-3 -1 -3 -6 0 -7 2 -1 71 -1 73 0 2 2 1 5 -1 6 -1 1 -11
1 -26 1 -13 0 -28 0 -34 0 -7 1 -11 1 -12 0z"/>
<path d="M1796 2988 c-1 0 -10 0 -22 0 l-20 0 -1 -3 c0 -2 0 -3 3 -4 3 -1 66
-2 69 0 1 0 3 2 4 2 3 4 0 5 -17 5 -9 1 -16 1 -16 0z"/>
<path d="M1797 2896 c0 0 -8 -1 -19 -1 -15 0 -18 -1 -20 -2 -1 -2 -1 -2 0 -4
2 -1 4 -2 19 -2 9 0 23 0 30 0 15 -1 18 -1 18 4 0 4 -3 5 -16 5 -6 0 -11 0
-12 0z"/>
<path d="M1816 2875 c-3 -1 -36 -3 -43 -2 -7 1 -15 0 -16 -3 0 -1 0 -3 1 -3 1
-2 65 -2 67 -1 3 2 4 3 3 5 -1 2 -9 5 -12 4z"/>
<path d="M1792 2782 c-1 0 -8 -1 -16 -1 -7 0 -14 0 -15 -1 -2 -1 -3 -4 -1 -6
2 -1 57 -2 61 -1 2 0 3 1 4 2 3 5 -3 7 -15 6 -5 0 -10 0 -12 1 -2 0 -5 0 -6 0z"/>
<path d="M1800 2756 c0 0 -9 0 -20 0 -10 0 -19 -1 -20 -1 -3 -1 -2 -5 0 -6 2
-1 61 -1 64 0 4 1 5 4 2 6 -1 2 -3 2 -14 2 -6 0 -12 0 -12 -1z"/>
<path d="M1819 2663 c-1 0 -31 -1 -48 -1 -12 0 -15 0 -16 -2 -3 -2 -1 -4 3 -4
6 -1 70 -2 72 -1 3 1 5 5 3 6 -1 1 -14 3 -14 2z"/>
<path d="M1807 2616 c-1 0 1 -1 3 -3 3 -1 5 -2 6 -1 0 1 0 2 -1 2 -1 2 -7 3
-8 2z"/>
<path d="M1785 2547 c-21 0 -23 -1 -24 -2 -1 -1 -1 -2 0 -3 0 0 12 -1 27 -1
14 -1 29 -1 34 -2 7 0 9 0 10 1 3 3 2 5 0 6 -2 2 -5 2 -13 2 -6 0 -21 -1 -34
-1z"/>
<path d="M1768 2522 c-5 0 -7 -1 -7 -2 -1 -5 1 -5 23 -5 13 0 22 0 24 -1 3 -1
19 0 22 2 2 1 3 6 1 6 -3 1 -57 0 -63 0z"/>
<path d="M1772 2425 c-14 0 -15 0 -15 -3 0 -2 1 -3 2 -4 3 -2 71 -2 74 0 1 2
1 4 0 6 -2 1 -38 2 -61 1z"/>
<path d="M1758 2399 c-1 -3 0 -5 3 -4 3 0 27 -2 37 -3 4 -1 9 0 14 0 3 1 9 1
12 2 5 0 7 1 7 4 0 2 -3 2 -7 0 -2 -1 -5 -1 -7 -1 -5 2 -24 3 -41 4 -16 0 -17
0 -18 -2z"/>
<path d="M1812 2286 c-3 -1 -13 -1 -24 -1 -20 1 -24 0 -25 -3 -1 0 -1 -2 0 -3
1 -2 8 -3 20 -2 4 0 12 0 18 0 19 -2 28 -1 30 2 2 3 1 6 -3 6 -8 2 -13 2 -16
1z"/>
<path d="M1758 2190 c-1 -2 -1 -5 1 -6 1 -2 5 -2 34 -2 20 0 33 0 34 1 2 1 3
5 0 6 -1 0 -14 1 -29 1 -15 0 -30 0 -33 1 -4 0 -6 0 -7 -1z"/>
<path d="M1760 2166 c-1 -2 -1 -4 1 -5 1 -2 5 -2 33 -2 27 0 31 0 32 2 1 0 2
2 2 2 0 4 -2 4 -34 4 -24 0 -33 0 -34 -1z"/>
<path d="M1793 2071 c-20 0 -31 0 -32 -1 -2 -2 -1 -5 1 -5 3 -1 64 -2 67 -1 6
2 4 8 -2 8 -2 0 -17 -1 -34 -1z"/>
<path d="M1759 2047 c-2 -1 -1 -6 2 -6 1 -1 16 -1 34 -1 33 0 36 0 36 4 0 1
-1 2 -1 3 -2 1 -69 2 -71 0z"/>
<path d="M1767 1954 c-6 0 -7 0 -8 -2 -1 -2 -1 -3 0 -5 2 -2 2 -2 15 -2 7 1
15 1 19 1 21 -1 32 0 33 1 2 2 2 4 1 6 -1 1 -45 2 -60 1z"/>
<path d="M1771 1930 c-8 0 -11 -1 -13 -2 -1 -2 -1 -2 0 -4 2 -4 6 -4 20 -3 6
1 18 1 28 0 18 0 23 1 25 4 0 1 0 3 -1 4 -2 1 -6 1 -25 1 -13 0 -28 0 -34 0z"/>
<path d="M1757 1834 c-2 -2 -2 -5 0 -7 1 0 16 -1 35 -1 32 0 33 0 35 2 2 2 3
4 0 6 -1 2 -4 2 -24 1 -25 0 -24 0 -36 1 -7 0 -8 0 -10 -2z"/>
<path d="M1757 1809 c-2 -1 0 -6 2 -7 2 -1 63 -1 66 0 3 1 4 4 3 7 -2 1 -4 1
-36 1 -26 1 -34 0 -35 -1z"/>
<path d="M1802 1720 c-3 0 -13 -1 -22 -1 -10 -1 -19 -1 -20 -2 -2 0 -3 -4 -1
-6 1 0 7 0 14 -1 7 0 21 0 32 0 21 -1 26 0 27 4 0 4 -2 5 -9 5 -4 1 -10 1 -12
1 -3 1 -7 1 -9 0z"/>
<path d="M1758 1695 c-2 -3 -1 -7 1 -7 3 -1 22 -2 29 -2 3 0 13 0 22 0 15 0
17 1 19 3 1 1 2 3 2 4 0 2 0 3 -6 3 -4 0 -21 1 -37 1 l-29 0 -1 -2z"/>
<path d="M1778 1600 c-20 0 -22 0 -23 -2 -1 -1 -1 -2 0 -4 2 -1 4 -2 31 -2 34
-1 40 -1 43 2 2 2 2 2 0 4 -2 3 -7 3 -51 2z"/>
<path d="M1817 1579 c-1 -1 -34 -2 -53 -2 -8 0 -10 -2 -7 -5 2 -1 5 -1 18 -2
23 0 35 -1 39 -2 5 -2 15 1 17 4 1 3 0 5 -3 6 -3 1 -10 1 -11 1z"/>
<path d="M1815 1483 c-4 0 -18 -1 -31 0 -24 0 -25 0 -26 -2 -1 -1 -1 -3 0 -4
1 -2 2 -2 19 -2 10 0 26 0 35 -1 15 -1 18 -1 20 0 2 2 3 5 0 8 -1 2 -5 2 -17
1z"/>
<path d="M1761 1456 c-2 0 -4 -1 -4 -3 0 -3 2 -4 6 -4 2 0 17 -1 34 -1 32 -1
34 -1 36 3 0 1 0 3 -1 4 -2 1 -6 1 -35 2 -19 0 -35 -1 -36 -1z"/>
<path d="M1313 4296 c-21 -5 -34 -26 -30 -51 2 -15 9 -26 21 -32 7 -3 8 -3 18
-3 9 0 11 0 16 2 16 7 24 22 24 42 0 5 -1 10 -1 13 -3 12 -12 23 -22 27 -7 3
-19 3 -26 2z m22 -12 c6 -3 9 -7 12 -13 2 -5 2 -7 2 -18 0 -12 0 -13 -2 -18
-6 -11 -13 -15 -25 -15 -12 0 -20 5 -25 16 -2 4 -2 6 -2 17 0 10 0 12 2 17 3
6 10 13 16 15 7 2 16 1 22 -1z"/>
<path d="M1489 4295 c-5 0 -6 -1 -6 -4 0 -5 1 -6 13 -6 6 0 12 0 12 -1 2 0 2
-4 2 -34 0 -26 0 -35 1 -36 1 0 3 -1 5 -1 2 0 4 1 5 1 1 1 1 10 1 35 0 25 0
34 1 35 1 1 5 1 12 1 6 0 12 0 13 1 2 1 3 6 1 8 -2 1 -53 2 -60 1z"/>
<path d="M1377 4293 c-1 -1 -1 -5 -1 -40 0 -30 1 -38 2 -39 1 -2 7 -3 9 -1 2
2 2 79 0 81 -2 2 -8 1 -10 -1z"/>
<path d="M1409 4293 c-2 -2 -2 -3 -2 -39 0 -22 0 -38 1 -39 1 -3 2 -3 5 -3 4
0 5 0 6 2 0 1 0 14 0 29 0 31 0 30 1 30 0 0 9 -12 18 -28 10 -15 19 -29 21
-30 2 -2 3 -3 7 -3 3 0 5 1 6 1 2 2 2 79 0 81 -2 2 -8 1 -9 -1 -2 -1 -2 -4 -1
-31 0 -25 0 -29 -1 -29 -2 0 -7 8 -28 41 -8 14 -13 20 -14 20 -4 1 -8 1 -10
-1z"/>
<path d="M1091 4292 c-11 -4 -20 -12 -24 -23 -2 -6 -2 -8 -2 -19 0 -13 0 -14
3 -20 6 -13 14 -20 28 -22 9 -2 18 0 26 5 3 2 6 4 7 4 0 0 1 -1 2 -3 2 -4 5
-5 8 -3 1 1 1 4 1 21 -1 10 -1 19 -1 20 -1 1 -7 1 -18 1 -16 0 -17 0 -18 -2
-1 -3 0 -6 2 -6 2 -1 7 -1 13 -1 l10 0 0 -3 c1 -12 -11 -24 -24 -24 -12 0 -20
5 -25 16 -2 5 -2 7 -2 18 0 13 1 18 7 25 6 6 10 7 19 7 10 1 15 -2 21 -10 4
-6 7 -7 11 -5 5 1 -2 15 -11 21 -9 5 -23 6 -33 3z"/>
<path d="M788 4291 c-14 -5 -23 -16 -25 -33 -3 -17 2 -33 12 -42 8 -8 12 -9
27 -9 15 -1 19 1 27 8 5 6 8 10 11 18 3 9 3 26 0 34 -4 12 -13 21 -24 25 -7 2
-21 1 -28 -1z m28 -12 c10 -4 14 -14 14 -29 0 -15 -4 -25 -14 -31 -4 -2 -5 -2
-13 -2 -11 0 -15 1 -21 8 -6 6 -8 13 -8 24 0 17 7 29 20 33 6 1 15 0 22 -3z"/>
<path d="M1213 4292 c-3 0 -4 -1 -4 -6 -1 -9 0 -73 1 -75 2 -1 8 -1 10 0 1 1
1 8 1 17 l1 16 15 0 c14 1 16 1 21 4 17 8 17 33 1 42 -5 2 -6 3 -24 3 -10 0
-20 0 -22 -1z m39 -11 c4 -3 6 -7 6 -12 0 -6 -2 -11 -7 -13 -4 -2 -7 -2 -17
-2 -8 0 -12 0 -13 1 -1 2 -1 23 0 25 1 3 4 3 17 3 9 -1 13 -1 14 -2z"/>
<path d="M859 4291 l-2 -2 0 -37 c0 -20 0 -38 1 -39 0 -2 1 -3 2 -4 3 -2 8 0
9 2 0 3 -1 77 -2 79 -1 2 -5 2 -8 1z"/>
<path d="M954 4291 c-1 -1 -1 -11 -1 -40 0 -34 0 -39 2 -40 2 -2 7 -2 9 -1 1
1 1 11 1 37 0 20 -1 38 -1 40 0 4 -1 5 -5 5 -2 0 -4 0 -5 -1z"/>
<path d="M985 4291 c-1 -1 -1 -11 -1 -37 0 -20 0 -38 1 -40 l1 -4 5 0 5 0 0
30 c0 16 0 30 0 30 1 1 9 -10 19 -25 13 -22 22 -35 23 -35 1 -1 4 -1 7 -1 3 0
4 0 5 2 1 3 0 78 -1 80 -1 1 -9 1 -10 0 0 -1 0 -15 0 -31 0 -20 0 -30 -1 -30
-1 0 -14 19 -29 43 -10 17 -13 19 -18 19 -3 0 -5 -1 -6 -1z"/>
<path d="M890 4290 c-1 0 -2 -1 -3 -3 0 -1 0 -19 0 -40 1 -28 2 -37 2 -38 1
-1 10 -1 27 -1 l24 1 1 2 c1 2 1 4 0 5 -1 1 -3 2 -21 2 l-19 1 -1 9 c0 4 -1
20 -1 34 0 22 0 26 -2 27 -1 2 -4 2 -7 1z"/>
<path d="M690 4289 c-1 -1 -1 -6 -1 -40 0 -27 1 -40 1 -41 2 -2 40 -1 45 1 12
5 19 16 16 28 -1 4 -2 6 -6 10 -3 3 -5 5 -5 6 0 0 1 2 2 3 3 2 5 7 5 13 0 10
-5 17 -14 20 -4 1 -41 1 -43 0z m38 -10 c4 0 8 -5 8 -11 0 -6 -2 -10 -7 -12
-4 -1 -28 -2 -28 0 -1 1 -1 6 -1 11 -1 12 -1 13 7 13 6 1 16 0 21 -1z m6 -35
c5 -3 6 -6 6 -12 0 -5 0 -6 -3 -9 -2 -2 -5 -4 -7 -5 -5 -1 -27 -1 -29 0 -1 1
-1 5 -1 14 0 12 0 12 2 13 4 2 28 1 32 -1z"/>
<path d="M1254 4053 c-3 -7 -7 -9 -13 -11 -6 -2 -6 -3 -6 -5 0 -4 1 -5 10 -5
l6 0 1 -4 c0 -2 0 -13 0 -24 0 -12 0 -23 0 -24 0 -3 1 -3 5 -3 l5 0 0 6 c0 3
1 20 1 38 0 28 -1 33 -2 34 -3 2 -5 1 -7 -2z"/>
<path d="M1309 4055 c-5 -2 -12 -8 -14 -13 -1 -3 -2 -7 -2 -9 0 -4 0 -5 2 -6
5 -1 7 1 8 6 2 6 5 10 10 12 12 5 24 -4 20 -16 -2 -6 -6 -10 -17 -17 -17 -10
-22 -17 -25 -29 -2 -9 -3 -8 26 -8 16 1 25 1 26 2 1 2 1 6 0 8 -1 1 -7 1 -21
1 -17 0 -18 0 -19 1 0 3 8 11 19 17 12 7 19 14 22 22 3 12 -1 22 -11 28 -5 2
-19 2 -24 1z"/>
<path d="M1366 4055 c-9 -3 -13 -11 -12 -20 1 -5 9 -12 13 -12 10 -1 16 3 19
12 4 12 -9 24 -20 20z m11 -8 c5 -3 5 -10 1 -15 -6 -8 -18 -3 -18 7 0 4 1 5 3
7 1 2 3 3 4 3 2 1 7 0 10 -2z"/>
<path d="M1181 4053 c-7 -2 -13 -8 -15 -14 -3 -9 -2 -13 3 -13 4 0 5 1 6 6 2
9 7 13 16 13 9 0 14 -4 14 -13 0 -9 -3 -12 -19 -22 -16 -10 -23 -19 -23 -30
l0 -5 25 0 c27 0 28 0 28 5 l0 4 -21 0 c-19 0 -20 0 -20 2 0 4 7 10 19 17 17
10 22 17 22 29 0 7 -2 12 -7 17 -6 6 -18 8 -28 4z"/>
<path d="M963 4052 c-8 -3 -15 -11 -18 -21 -2 -8 -2 -32 0 -40 3 -8 7 -14 12
-18 4 -2 6 -3 12 -3 10 0 15 2 21 8 6 9 7 14 7 34 0 16 0 18 -2 23 -3 7 -7 13
-12 15 -5 3 -15 4 -20 2z m14 -10 c6 -3 9 -11 10 -25 l1 -9 3 -1 c5 0 4 -4 -2
-7 -2 -1 -3 -4 -4 -8 -3 -8 -5 -11 -10 -12 -8 -3 -15 2 -19 13 -3 12 -2 35 3
44 4 5 12 8 18 5z"/>
<path d="M844 4051 c0 0 -2 -2 -3 -4 -3 -7 -5 -8 -12 -10 -7 -2 -7 -2 -7 -5 0
-3 1 -4 9 -4 4 0 7 0 8 -1 0 0 1 -9 1 -27 1 -24 1 -27 3 -28 2 -2 5 -1 7 1 2
2 2 4 1 39 0 20 -1 37 -1 38 -1 2 -3 2 -6 1z"/>
<path d="M898 4051 c-9 -4 -15 -12 -18 -25 -1 -6 -1 -31 1 -36 4 -12 12 -20
23 -21 9 0 14 1 19 7 6 6 8 9 9 17 2 8 2 27 1 34 -2 7 -7 16 -11 20 -6 5 -16
6 -24 4z m16 -11 c4 -3 7 -9 8 -19 2 -16 -1 -33 -6 -39 -6 -6 -16 -4 -21 3 -6
9 -7 38 -1 49 4 7 13 10 20 6z"/>
<path d="M1016 4050 c-6 -3 -9 -9 -9 -16 2 -16 21 -21 30 -8 3 5 3 13 0 18 -2
4 -9 8 -14 8 -1 0 -4 -1 -7 -2z m15 -7 c4 -4 4 -9 1 -14 -5 -8 -19 -4 -19 6 0
7 4 11 11 11 2 0 4 -1 7 -3z"/>
<path d="M513 4029 c-2 -1 0 -2 8 -2 7 0 10 1 6 2 -2 1 -13 1 -14 0z"/>
<path d="M1578 4018 c-33 -1 -60 -1 -61 -1 -2 0 -25 0 -51 0 -35 0 -50 0 -51
-1 -1 -2 -1 -6 0 -8 2 -1 18 -1 74 -1 167 2 208 2 210 3 3 1 3 6 0 8 -2 1 -46
1 -121 0z"/>
<path d="M1086 4010 c-14 0 -23 0 -24 -1 -1 -2 -1 -5 0 -7 2 -1 11 -1 37 -1
37 1 38 1 38 6 0 3 -3 4 -16 4 -7 0 -23 -1 -35 -1z"/>
<path d="M1296 3800 c-11 0 -21 -1 -22 -1 -1 -1 -1 -1 0 -47 0 -25 0 -32 1
-34 2 -1 3 -1 30 -1 16 0 28 1 29 1 1 2 1 8 0 9 -1 0 -12 0 -24 0 -13 0 -23 0
-23 1 -1 0 -1 6 -2 12 -1 16 -2 15 23 15 l20 0 2 3 c1 2 1 3 0 5 l-1 2 -21 0
c-26 0 -23 -1 -23 14 l1 9 3 1 c1 0 11 1 22 1 11 0 20 0 21 1 2 1 3 6 0 8 -1
2 -3 2 -8 2 -3 0 -16 -1 -28 -1z"/>
<path d="M1352 3800 c-1 -2 -2 -75 0 -79 1 -3 5 -4 8 -3 l3 1 0 17 1 17 15 0
c9 0 17 0 18 -1 4 -2 6 -6 7 -18 1 -14 2 -16 8 -16 6 0 7 1 5 7 0 2 -1 7 -1 9
0 10 -2 18 -5 22 -2 2 -3 4 -2 4 6 9 6 10 7 17 0 12 -4 20 -14 23 -5 1 -48 1
-50 0z m45 -10 c5 -2 7 -6 7 -12 0 -12 -4 -14 -24 -15 -14 0 -15 0 -17 2 -2 2
-2 22 1 24 2 3 28 3 33 1z"/>
<path d="M1210 3799 c-15 0 -15 0 -15 -5 0 -2 0 -4 1 -5 1 0 6 0 12 0 6 0 12
-1 13 -1 1 -1 2 -6 2 -35 0 -18 1 -34 1 -35 1 -1 2 -2 5 -2 6 0 6 0 6 37 -1
25 -1 34 0 35 1 1 4 1 12 1 6 0 12 0 13 1 2 1 2 6 0 8 -1 2 -15 2 -50 1z"/>
<path d="M1057 3796 c-2 -1 -3 -7 -8 -26 -9 -32 -9 -34 -11 -35 0 0 -1 1 -1 2
-3 12 -15 56 -16 58 -1 1 -2 2 -5 2 -7 0 -7 0 2 -34 5 -17 10 -34 11 -38 1 -5
3 -9 3 -10 2 -1 10 -1 12 0 0 1 4 12 7 25 8 30 10 37 11 37 1 0 2 -4 12 -37 8
-26 9 -28 17 -25 3 1 2 -2 14 46 5 19 9 35 9 36 -1 1 -9 2 -11 0 0 -1 -4 -13
-7 -28 -7 -32 -8 -34 -9 -34 -1 0 -1 2 -2 4 -1 3 -2 9 -4 14 -2 5 -5 17 -7 25
-3 9 -6 17 -7 18 -2 3 -7 3 -10 0z"/>
<path d="M1150 3796 c-1 -1 -7 -15 -12 -31 -6 -16 -12 -32 -14 -36 -1 -4 -2
-8 -3 -10 0 -4 0 -4 3 -5 5 -1 7 1 11 11 5 15 3 14 21 14 11 0 15 0 16 -1 0
-1 2 -6 4 -10 4 -12 5 -13 10 -13 3 0 5 1 5 2 1 1 -1 8 -7 23 -4 12 -11 29
-14 38 -4 9 -7 17 -8 18 -1 1 -3 2 -6 2 -3 0 -5 -1 -6 -2z m12 -29 c3 -8 5
-15 5 -15 0 -3 -2 -3 -12 -3 -7 0 -10 0 -10 1 -1 1 1 7 3 14 7 18 7 18 8 17 1
0 3 -7 6 -14z"/>
<path d="M830 3796 c-20 -7 -31 -26 -28 -50 3 -25 20 -39 43 -37 17 2 28 11
33 27 4 9 4 15 3 24 -1 12 -5 19 -12 26 -5 6 -8 7 -13 9 -8 2 -20 3 -26 1z
m21 -11 c7 -2 11 -6 15 -14 3 -6 3 -7 3 -16 1 -14 -2 -21 -8 -27 -5 -6 -11 -8
-20 -8 -13 -1 -23 7 -27 20 -2 8 -1 22 2 29 5 14 20 21 35 16z"/>
<path d="M901 3795 c-2 0 -4 -1 -5 -1 -1 -1 -1 -13 0 -40 0 -32 1 -39 2 -41 2
-2 6 -1 8 1 2 2 2 3 2 17 -1 12 -1 16 0 17 1 2 4 2 18 2 20 0 21 1 21 6 l0 4
-19 0 c-14 0 -19 0 -20 1 -1 2 -2 21 -1 23 1 1 6 1 19 1 10 0 19 0 22 1 3 0 4
1 4 4 0 6 0 6 -25 6 -12 0 -24 -1 -26 -1z"/>
<path d="M1661 3507 c-2 -2 -1 -9 1 -11 1 -1 1 -1 3 0 1 2 2 8 0 10 -2 2 -2 2
-4 1z"/>
<path d="M1397 2161 c-11 -3 -18 -9 -24 -22 -3 -6 -3 -7 -3 -20 0 -13 0 -15 2
-20 3 -8 11 -17 19 -21 5 -2 6 -2 18 -2 11 0 12 0 17 2 15 8 24 25 23 46 -1
14 -7 25 -16 32 -9 6 -24 9 -36 5z m24 -11 c11 -5 16 -14 15 -31 0 -16 -4 -25
-14 -31 -11 -6 -28 -2 -35 7 -8 12 -9 34 0 47 6 10 21 13 34 8z"/>
<path d="M1183 2161 c-8 -1 -14 -4 -20 -10 -15 -15 -17 -43 -5 -61 4 -6 6 -8
13 -11 13 -7 28 -6 39 2 4 4 5 4 7 0 1 -3 2 -4 4 -4 2 0 4 0 4 1 1 1 1 10 1
21 0 16 0 19 -2 20 -1 2 -4 2 -16 2 -9 0 -16 0 -17 -1 -2 -1 -3 -6 -1 -8 1 0
6 -1 11 -1 6 0 11 0 12 0 3 0 1 -11 -3 -18 -2 -1 -5 -4 -8 -6 -4 -2 -6 -2 -12
-2 -12 0 -20 4 -25 15 -2 6 -2 8 -2 17 0 12 1 17 5 24 7 10 21 13 33 8 4 -2 7
-4 9 -8 3 -5 4 -6 8 -6 6 0 7 2 3 9 -6 13 -20 19 -38 17z"/>
<path d="M734 2160 c-1 0 -2 -1 -2 -1 -1 -1 -1 -19 -1 -41 0 -29 0 -39 1 -40
2 -2 9 -1 10 1 1 1 1 9 1 17 0 19 -2 17 17 17 21 0 23 -2 24 -20 0 -6 1 -12 2
-13 0 -2 3 -3 8 -3 4 1 4 -1 2 18 -1 13 -2 16 -6 20 -2 2 -2 4 -1 4 4 7 6 10
7 15 2 10 -3 19 -11 24 -5 2 -6 3 -27 3 -13 0 -23 0 -24 -1z m46 -12 c3 -2 5
-8 5 -13 -1 -5 -3 -9 -8 -11 -4 -2 -30 -2 -33 -1 -1 1 -1 4 -2 13 0 8 0 11 1
12 1 2 4 2 17 2 15 0 17 0 20 -2z"/>
<path d="M822 2160 c-3 0 -6 -1 -7 -1 -1 -1 -1 -13 -1 -41 0 -33 1 -39 2 -40
1 -1 14 -1 29 -1 30 0 31 0 31 6 0 5 -3 5 -26 5 -12 0 -23 0 -23 1 -1 0 -1 6
-1 13 l1 13 21 0 c13 0 21 1 22 2 1 0 1 2 1 4 l0 4 -21 0 c-14 0 -22 0 -23 1
-1 1 -1 4 -1 12 l1 12 23 0 c12 0 23 1 24 1 2 2 1 8 -1 9 -1 1 -37 1 -51 0z"/>
<path d="M893 2159 c-2 -1 -2 -6 -2 -41 0 -33 1 -39 2 -40 2 -1 56 -1 58 0 1
1 2 2 2 4 0 5 0 5 -26 6 l-23 1 -1 11 c0 17 -3 15 22 15 14 0 21 1 22 2 1 0 1
2 1 4 0 5 -2 5 -23 5 -11 0 -20 0 -21 0 -1 1 -1 21 0 23 1 1 7 1 23 1 13 0 22
0 23 1 2 1 3 7 1 9 -1 1 -9 1 -29 1 -25 0 -28 0 -29 -2z"/>
<path d="M969 2160 c-3 0 -4 -2 -4 -5 0 -2 1 -3 2 -4 1 -1 10 -1 22 -1 23 0
22 0 17 -7 -5 -6 -33 -42 -39 -49 -4 -6 -5 -7 -5 -11 0 -4 0 -4 3 -5 3 -1 58
0 60 1 1 1 2 6 1 8 -1 1 -10 1 -24 1 -12 0 -23 0 -23 1 -1 0 0 2 1 3 1 2 27
35 40 51 5 7 6 9 6 12 0 2 -1 4 -1 5 -1 1 -8 1 -28 1 -15 0 -27 0 -28 -1z"/>
<path d="M1041 2160 c-1 -1 -1 -12 -1 -41 0 -38 0 -40 2 -41 3 -1 7 -1 8 1 2
1 2 6 2 40 0 34 0 39 -2 40 -1 2 -7 3 -9 1z"/>
<path d="M1465 2159 c-2 -1 -2 -6 -2 -40 0 -43 0 -42 6 -42 6 0 6 -1 6 42 0
43 0 42 -6 42 -2 0 -4 -1 -4 -2z"/>
<path d="M1551 2160 l-2 -1 -1 -29 c0 -15 0 -30 0 -31 0 -2 0 -2 -1 -1 -1 1
-8 11 -15 23 -8 12 -16 25 -19 30 l-6 9 -6 0 -6 0 -1 -40 c0 -30 0 -41 1 -42
1 -1 3 -1 5 -1 l5 1 0 30 c0 24 0 31 1 31 1 0 8 -11 17 -25 8 -13 17 -26 19
-30 l5 -6 5 -1 c5 0 6 0 7 2 1 3 1 78 0 80 -2 1 -5 2 -8 1z"/>
<path d="M1571 2160 c-1 -1 -2 -2 -2 -4 0 -5 1 -5 14 -6 9 0 12 0 13 -2 1 -1
1 -10 1 -35 0 -25 0 -34 1 -35 2 -1 8 -1 10 0 1 1 1 13 1 37 l1 35 12 0 c6 0
12 1 13 1 1 1 1 7 0 9 -2 1 -62 1 -64 0z"/>
<path d="M661 2159 c-1 -1 -1 -11 -1 -39 0 -43 0 -43 7 -43 2 0 3 1 4 2 1 1 1
9 1 18 0 11 0 16 1 17 1 1 7 1 19 1 14 0 17 0 18 2 2 1 2 5 1 7 -1 1 -9 1 -20
1 l-18 1 -1 10 c-1 6 -1 11 0 12 1 2 2 2 22 2 22 0 23 0 23 5 0 5 1 5 -28 5
-19 0 -27 0 -28 -1z"/>
<path d="M1072 2159 c-1 -1 -1 -11 -1 -40 0 -21 0 -40 1 -40 0 -2 8 -3 10 -1
0 1 0 15 0 31 0 20 0 29 1 29 1 1 7 -7 27 -39 6 -10 12 -19 13 -20 2 -3 10 -3
12 -1 2 1 2 6 2 40 0 30 0 40 -1 41 -2 1 -9 1 -10 0 -1 -2 -1 -9 -1 -31 0 -19
0 -30 0 -30 -1 0 -4 3 -6 8 -22 33 -34 53 -36 53 -2 1 -10 1 -11 0z"/>
<path d="M1298 2159 l-2 -2 0 -39 0 -39 2 -2 c2 -1 4 -1 6 0 l3 1 0 15 c0 8 1
16 1 17 1 0 6 1 16 1 17 1 20 1 25 6 10 10 11 28 1 37 -6 4 -10 5 -30 6 -15 0
-20 0 -22 -1z m36 -10 c6 -1 10 -6 11 -12 0 -6 -2 -11 -6 -14 -4 -2 -28 -3
-31 -1 -1 1 -1 4 -1 14 0 10 0 12 2 13 2 1 20 1 25 0z"/>
<path d="M1167 1949 c-7 -2 -15 -12 -15 -20 0 -1 1 -3 1 -4 2 -2 7 -1 8 1 6
13 9 15 18 15 6 -1 7 -1 9 -4 2 -2 3 -4 3 -8 0 -2 -1 -5 -1 -7 -2 -3 -8 -6
-13 -6 -4 0 -6 -3 -5 -7 1 -2 2 -2 6 -2 6 0 12 -3 14 -7 6 -12 -4 -25 -18 -23
-6 1 -11 6 -12 10 -2 5 -4 7 -7 7 -4 0 -5 -2 -5 -7 2 -8 8 -15 16 -18 5 -2 17
-1 22 1 7 2 13 8 15 14 4 10 1 21 -5 26 -4 2 -4 4 -1 7 3 2 5 7 5 14 0 8 -4
14 -11 17 -6 3 -18 4 -24 1z"/>
<path d="M1234 1949 c-10 -4 -16 -13 -16 -23 1 -5 2 -6 7 -5 1 1 2 2 3 5 2 9
5 12 13 14 11 3 20 -7 17 -18 -1 -6 -5 -9 -16 -16 -17 -9 -23 -16 -26 -27 -2
-10 -3 -10 25 -10 15 0 25 0 26 1 3 1 3 7 0 8 0 1 -10 1 -20 1 -18 0 -19 0
-19 2 0 4 7 10 18 16 11 6 18 13 21 18 2 4 2 6 2 12 0 7 0 8 -2 12 -3 4 -8 8
-13 10 -4 1 -16 1 -20 0z"/>
<path d="M949 1947 c-6 -3 -12 -10 -14 -18 -2 -6 -2 -10 -2 -22 0 -17 1 -23 6
-31 9 -12 28 -14 38 -3 7 8 10 18 10 36 0 20 -4 30 -13 36 -4 3 -5 4 -12 4 -7
0 -9 0 -13 -2z m18 -10 c6 -3 10 -17 9 -34 -1 -12 -3 -19 -7 -24 -3 -2 -5 -3
-8 -3 -8 0 -13 4 -15 11 -3 11 -3 35 1 43 4 9 11 12 20 7z"/>
<path d="M1288 1947 c-6 -3 -8 -7 -8 -15 0 -7 1 -10 7 -14 5 -3 12 -3 17 0 10
7 10 23 -1 29 -5 2 -9 3 -15 0z m14 -7 c6 -5 4 -16 -4 -18 -8 -2 -15 5 -13 13
2 8 11 11 17 5z"/>
<path d="M1005 1947 c-6 -3 -10 -12 -9 -18 1 -5 7 -12 12 -13 7 -3 17 1 20 9
3 8 0 16 -7 21 -4 2 -11 3 -16 1z m15 -8 c2 -2 3 -4 3 -7 0 -4 -1 -6 -3 -8 -8
-8 -21 1 -17 12 2 4 5 6 10 6 3 0 5 -1 7 -3z"/>
<path d="M1052 1904 c-2 -1 -2 -4 -1 -6 1 -1 5 -2 26 -2 14 0 31 1 37 1 10 0
11 1 12 3 0 1 0 3 0 4 l-1 2 -36 0 c-31 0 -36 0 -37 -2z"/>
<path d="M1233 1715 c-16 0 -25 0 -26 -1 0 -1 -1 -3 -1 -4 1 -5 4 -6 16 -6 9
0 11 0 11 -2 1 0 1 -16 1 -35 0 -36 0 -36 6 -36 6 0 6 0 6 37 0 23 0 35 1 35
1 1 6 2 12 2 6 0 12 1 13 1 1 1 1 6 0 8 -1 1 -11 2 -39 1z"/>
<path d="M1289 1715 c-1 0 -3 -1 -3 -1 -2 -1 -1 -79 0 -81 2 -1 55 -2 58 0 3
2 3 8 0 9 -2 1 -9 1 -24 1 -12 0 -22 0 -23 0 -1 2 -1 22 0 25 1 2 2 2 20 2 11
0 21 0 21 1 3 1 4 4 3 6 l-1 3 -21 0 c-20 0 -21 0 -22 2 -1 3 -1 20 0 22 1 1
7 1 22 1 12 0 22 0 23 1 2 1 3 2 3 4 0 2 -1 4 -1 5 -1 1 -9 1 -27 1 -14 0 -27
-1 -28 -1z"/>
<path d="M1363 1715 c-1 -1 -1 -11 -1 -41 0 -43 0 -42 6 -42 5 0 6 2 6 18 0
11 0 16 1 17 1 1 6 1 15 1 22 0 23 -1 25 -20 0 -8 1 -13 2 -14 2 -1 11 -2 12
-1 0 1 0 3 -1 6 0 2 -1 9 -2 14 0 10 -1 14 -5 17 -3 3 -3 5 0 8 7 6 8 21 3 28
-3 4 -7 8 -12 9 -5 1 -47 1 -49 0z m45 -11 c5 -2 7 -6 7 -12 0 -6 -2 -10 -7
-12 -3 -2 -7 -2 -18 -2 -9 0 -14 0 -15 1 -1 0 -1 6 -1 13 0 10 0 12 2 13 2 2
27 1 32 -1z"/>
<path d="M840 1714 c-14 -5 -23 -15 -26 -30 -5 -18 0 -36 12 -47 8 -8 16 -11
29 -10 19 1 32 13 37 34 5 23 -5 45 -25 52 -6 2 -21 3 -27 1z m26 -12 c11 -6
16 -20 14 -37 -2 -18 -12 -27 -28 -27 -16 0 -26 10 -28 28 -1 15 4 29 14 35 6
3 8 4 17 3 4 0 8 -1 11 -2z"/>
<path d="M1115 1713 c-1 -1 -5 -13 -8 -28 -7 -29 -8 -33 -9 -33 0 0 -1 1 -1 2
-12 42 -17 58 -18 59 -2 1 -10 1 -12 0 0 -1 -3 -9 -5 -17 -9 -33 -12 -43 -13
-44 -1 0 -3 6 -10 37 -3 12 -5 22 -6 23 -1 2 -2 2 -5 2 -7 0 -8 -1 -4 -12 1
-5 6 -23 10 -39 4 -16 8 -30 9 -31 1 0 3 -1 6 -1 5 0 5 0 7 3 0 2 3 12 5 21 6
23 11 38 11 39 2 1 2 -1 6 -14 2 -7 4 -14 5 -15 0 -2 3 -9 5 -16 4 -17 5 -18
11 -18 3 0 4 0 5 2 2 2 21 76 21 79 0 3 -8 4 -10 1z"/>
<path d="M920 1713 c-9 0 -12 0 -13 -2 -1 -2 0 -78 1 -80 2 -1 7 -1 9 0 1 1 1
6 1 18 0 16 0 17 2 18 1 1 9 1 19 1 18 0 19 0 19 5 0 5 -1 5 -20 5 -9 0 -18 0
-18 1 -3 1 -3 22 0 23 0 1 10 1 21 1 14 0 20 0 21 1 2 2 1 8 -1 9 -2 1 -13 1
-41 0z"/>
<path d="M1161 1712 c-1 -1 -2 -4 -3 -6 -1 -2 -8 -20 -15 -38 -6 -19 -12 -35
-12 -36 1 -1 5 -2 8 -2 3 1 4 4 9 17 l3 8 15 0 c18 0 16 1 21 -12 2 -5 4 -10
5 -11 2 -2 10 -2 11 1 0 0 -1 5 -3 9 -1 5 -7 21 -13 36 -5 15 -11 29 -12 32
-2 4 -2 4 -7 4 -4 0 -6 0 -7 -2z m10 -23 c1 -4 4 -11 5 -15 2 -6 2 -7 1 -8 -2
-2 -21 -1 -21 0 -1 1 8 28 10 30 1 2 2 1 5 -7z"/>
<path d="M2132 1643 c-1 -1 -1 -3 1 -4 2 -3 3 -2 3 0 0 4 -2 6 -4 4z"/>
<path d="M1586 135 l-3 0 -1 -40 c0 -30 0 -41 1 -42 1 -1 3 -1 5 -1 6 1 6 1 6
21 0 10 0 15 1 16 1 1 6 1 18 1 9 0 18 0 18 1 3 1 3 7 0 8 -1 1 -9 1 -19 1
l-17 0 -1 3 c-1 3 -1 18 0 20 1 2 2 2 21 2 11 0 21 0 22 1 2 1 2 5 1 8 -2 1
-3 2 -25 2 -13 0 -25 -1 -27 -1z"/>
<path d="M1818 135 c-2 0 -4 -1 -5 -1 -1 -1 -1 -14 -1 -42 l1 -39 4 -1 c2 0 5
0 5 1 1 1 1 7 1 16 0 10 0 16 1 17 1 1 4 1 16 1 22 0 23 -1 24 -20 1 -6 2 -12
2 -13 1 -2 6 -3 9 -2 3 0 3 1 3 3 -1 2 -1 8 -2 15 -1 14 -2 15 -5 19 l-3 4 2
3 c4 4 6 9 7 14 0 7 -1 13 -6 18 -5 6 -9 7 -30 7 -10 0 -20 0 -23 0z m40 -11
c5 -2 7 -7 7 -14 -1 -11 -5 -13 -25 -13 -18 0 -17 -1 -17 14 0 6 0 11 1 12 1
2 2 2 16 2 11 0 16 0 18 -1z"/>
<path d="M1676 133 c-1 -1 -5 -10 -10 -23 -4 -13 -11 -29 -14 -37 -3 -8 -5
-16 -5 -18 0 -3 0 -4 4 -4 5 0 6 1 10 13 2 5 4 10 5 11 1 1 6 1 15 1 9 0 14 0
15 -1 1 -1 3 -6 5 -11 4 -12 5 -13 11 -13 4 0 5 1 5 3 0 1 -2 7 -5 14 -2 7 -8
24 -14 39 -5 14 -10 26 -11 27 -2 2 -8 1 -11 -1z m8 -18 c3 -8 8 -24 8 -27 0
-3 -2 -3 -11 -3 -11 0 -12 1 -10 6 3 11 9 27 10 27 1 0 2 -2 3 -3z"/>
<path d="M1729 134 c-1 0 -1 -18 -1 -41 0 -38 0 -40 2 -41 1 -1 3 -1 4 -1 5 0
5 1 6 20 l1 19 19 0 c17 0 20 0 21 -2 1 -1 1 -6 1 -18 0 -16 0 -17 2 -18 1 -1
3 -1 4 -1 5 0 5 0 5 43 0 22 0 40 -1 40 0 1 -7 1 -9 0 -1 -1 -1 -3 -1 -16 0
-8 0 -15 -1 -16 -1 -1 -4 -2 -19 -2 -12 0 -19 0 -20 1 -2 1 -2 2 -2 16 0 8 0
15 -1 16 -1 2 -2 2 -5 2 -3 0 -5 0 -5 -1z"/>
<path d="M1895 133 c-1 -1 -1 -16 -1 -40 l0 -39 2 -1 c2 -2 7 -2 29 -2 29 0
30 0 30 5 0 5 0 5 -25 6 l-23 1 0 13 0 13 20 0 c19 0 21 1 23 2 0 2 1 3 1 4 0
0 -1 1 -1 3 -2 1 -4 2 -23 2 l-20 1 -1 11 0 11 3 1 c1 1 12 1 23 1 l21 0 1 2
c0 2 0 4 0 5 l0 3 -29 0 c-28 0 -29 0 -30 -2z"/>
<path d="M1972 134 c-2 -1 -2 -5 -2 -41 0 -21 0 -40 1 -41 0 -1 1 -1 5 -1 l5
1 0 30 c0 22 0 31 1 31 1 -1 8 -11 32 -48 7 -12 8 -13 11 -14 3 -1 5 -1 7 0
l3 1 0 40 c0 37 0 41 -2 42 -2 1 -5 1 -8 0 -1 -2 -1 -3 -1 -32 0 -20 0 -31 -1
-31 -1 0 -12 18 -30 48 -6 10 -10 14 -12 15 -3 1 -7 1 -9 0z"/>
<path d="M2054 134 c-2 -1 -2 -4 -2 -41 0 -29 0 -40 1 -41 2 -2 9 -1 10 1 1 1
1 8 1 18 0 9 0 17 0 18 2 1 38 1 40 0 1 -1 1 -5 1 -18 0 -9 0 -17 1 -18 1 -2
8 -3 10 -1 1 1 1 11 1 41 0 43 0 42 -6 42 -5 0 -5 -1 -6 -18 l0 -16 -20 -1
c-17 0 -20 0 -21 2 -1 1 -1 6 -1 16 0 10 0 15 -1 16 -2 1 -6 1 -8 0z"/>
<path d="M2136 134 c-1 -1 -1 -11 -1 -41 0 -34 0 -39 2 -40 1 -2 5 -2 28 -2
20 0 28 0 29 1 2 2 1 8 -1 9 -1 1 -11 1 -24 1 -19 0 -22 0 -22 2 -1 2 -1 21 0
23 1 2 2 2 21 2 11 0 20 0 21 1 2 1 3 6 1 8 -1 1 -7 1 -21 1 -17 0 -20 0 -21
2 -2 2 -3 20 -1 22 1 1 7 1 23 1 20 0 21 0 23 2 2 2 2 3 1 6 l-1 3 -28 0 c-20
0 -28 0 -29 -1z"/>
<path d="M2212 133 c-2 -3 -1 -79 0 -81 2 -2 8 -1 9 1 2 1 2 6 2 40 0 24 0 39
-1 40 -1 1 -2 2 -5 2 -3 0 -4 -1 -5 -2z"/>
<path d="M2236 133 c-1 0 -2 -2 -2 -3 0 -5 2 -6 15 -6 l11 0 1 -3 c1 -2 1 -14
1 -35 0 -32 0 -33 1 -35 3 -1 5 -1 8 0 2 1 2 2 2 36 0 26 0 35 1 36 1 1 5 1
12 1 5 0 11 0 12 1 2 1 3 7 1 9 -1 1 -9 1 -32 1 -26 0 -30 0 -31 -2z"/>
<path d="M27 130 c-17 -7 -26 -21 -26 -42 0 -16 4 -27 13 -36 7 -6 14 -8 25
-8 15 0 25 6 31 19 5 9 5 12 2 13 -4 2 -8 0 -10 -5 -5 -14 -17 -20 -31 -16 -6
2 -12 8 -15 14 -4 10 -4 27 0 37 8 18 33 21 44 5 4 -6 7 -8 10 -6 4 1 4 4 0
11 -3 6 -10 11 -17 13 -6 2 -21 2 -26 1z"/>
<path d="M375 129 c-10 -3 -18 -11 -23 -23 -3 -7 -4 -24 -2 -33 3 -12 11 -21
21 -26 5 -2 7 -2 16 -2 11 0 15 1 22 6 2 1 4 3 5 3 0 0 1 -1 2 -3 2 -4 4 -6 7
-4 1 1 2 3 2 21 0 16 0 20 -1 21 -2 1 -33 2 -35 1 -2 -2 -1 -7 1 -8 1 -1 6 -1
12 -1 12 0 13 -1 11 -8 -2 -9 -10 -17 -18 -19 -5 -1 -15 0 -19 2 -4 3 -9 8
-12 14 -2 5 -2 7 -2 18 0 10 0 12 2 17 5 10 12 15 22 16 10 1 18 -3 23 -10 3
-6 5 -7 8 -7 4 0 6 2 5 6 -2 8 -12 17 -21 19 -7 3 -19 2 -26 0z"/>
<path d="M698 130 c-4 0 -8 -1 -9 -1 -1 -2 -2 -77 0 -80 1 -2 2 -2 30 -2 28 0
29 0 30 2 1 3 1 6 -1 7 -1 1 -6 1 -23 1 -13 0 -22 0 -23 1 -2 1 -2 2 -2 13 0
8 0 12 1 13 1 1 7 1 22 1 22 0 22 0 22 6 l0 4 -21 0 c-14 0 -22 0 -23 1 -1 1
-1 4 -1 12 0 9 0 11 2 11 0 1 11 1 22 1 13 0 22 0 23 1 3 1 3 8 0 9 -2 1 -29
1 -49 0z"/>
<path d="M91 129 c-2 -1 -2 -4 -2 -41 0 -38 0 -40 2 -41 2 -1 53 -1 56 0 2 1
3 2 3 4 0 2 -1 4 -1 5 -1 1 -9 1 -24 1 -15 0 -23 0 -23 1 -2 1 -2 23 -1 25 1
1 5 1 22 2 18 0 21 1 22 2 2 3 0 7 -2 7 -1 1 -11 1 -22 1 -18 0 -19 0 -20 2
-1 3 -1 18 0 20 1 2 5 2 24 3 21 0 23 0 24 2 1 3 1 5 -1 6 -1 2 -5 2 -28 2
-17 0 -28 0 -29 -1z"/>
<path d="M222 128 l-2 -1 1 -30 c0 -25 0 -30 -1 -30 -1 0 -12 15 -30 45 -11
17 -11 17 -18 17 -4 0 -5 0 -6 -2 -1 -2 -1 -73 0 -78 1 -2 1 -3 4 -3 7 0 7 -1
7 32 0 20 0 30 1 30 1 0 3 -3 19 -28 7 -11 15 -24 18 -27 l4 -7 5 0 c3 0 6 1
7 1 1 2 2 79 0 81 -1 2 -6 2 -9 0z"/>
<path d="M242 129 c0 -1 0 -3 0 -5 0 -3 1 -4 6 -4 2 -1 7 -1 11 0 11 1 10 3
11 -37 0 -32 0 -34 1 -36 3 -1 6 -1 9 0 1 2 2 3 2 36 0 19 0 35 0 36 1 0 6 1
13 1 6 0 12 1 13 1 1 2 1 6 0 8 -1 1 -10 1 -33 1 -27 0 -32 0 -33 -1z"/>
<path d="M322 129 c-2 -2 -2 -78 0 -80 1 -2 3 -2 6 -2 l5 1 0 39 c0 29 0 41
-1 42 -2 1 -8 1 -10 0z"/>
<path d="M445 129 c-1 -1 -1 -13 -1 -42 l1 -39 4 -1 c2 0 5 0 5 1 1 1 2 7 2
17 l1 17 15 0 c10 0 16 0 18 -1 5 -2 6 -6 7 -19 0 -7 1 -13 2 -14 1 -1 3 -1 6
-1 5 0 5 1 5 4 -2 25 -3 31 -7 35 -3 2 -2 3 1 7 10 12 5 32 -9 36 -6 2 -48 1
-50 0z m46 -11 c5 -2 7 -6 7 -13 -1 -6 -5 -11 -11 -12 -5 -1 -30 -1 -31 0 0 1
0 25 1 26 0 1 7 1 15 1 11 0 16 0 19 -2z"/>
<path d="M552 129 c-1 -1 -5 -9 -9 -19 -18 -49 -22 -60 -22 -61 0 -2 1 -3 5
-3 5 0 6 1 10 13 2 6 5 11 5 11 2 1 29 1 31 0 0 0 3 -5 5 -11 2 -5 4 -10 5
-11 3 -2 8 -3 10 -1 1 2 1 2 -7 26 -4 9 -9 23 -12 30 -5 17 -9 25 -10 26 -2 1
-9 1 -11 0z m11 -31 c3 -8 5 -15 5 -16 -1 -2 -22 -2 -23 0 0 1 9 27 11 30 1 2
3 -1 7 -14z"/>
<path d="M605 128 c0 -1 0 -20 0 -41 l1 -39 3 -1 c2 -1 11 -1 21 -1 20 1 24 2
31 10 9 10 12 19 12 36 -1 10 -1 12 -4 18 -3 8 -9 14 -16 17 -4 2 -6 3 -26 3
l-21 0 -1 -2z m45 -12 c7 -4 10 -11 11 -24 1 -17 -4 -28 -13 -33 -4 -2 -6 -2
-18 -2 -11 0 -13 0 -13 2 -2 3 -1 57 0 59 1 2 2 2 14 2 13 -1 14 -1 19 -4z"/>
</g>
</svg>
